<svg xmlns="http://www.w3.org/2000/svg" viewBox="0 0 500 500"><g id="freepik--background-complete--inject-12"><path d="M121.21,193.32a35.82,35.82,0,0,0-5.64,21.26c6.41-3,14.31-8.71,17.91-14.8a34.26,34.26,0,0,0,4.88-19.91A35.18,35.18,0,0,0,121.21,193.32Z" style="fill:#ebebeb"></path><path d="M121.18,205.07a7.7,7.7,0,0,1,.45-1.12c.31-.71.8-1.73,1.43-3a86.31,86.31,0,0,1,12.19-17.88c.92-1,1.69-1.85,2.23-2.4a7.36,7.36,0,0,1,.88-.83,6.62,6.62,0,0,1-.76.93c-.51.58-1.25,1.43-2.14,2.49a103.89,103.89,0,0,0-12.15,17.83c-.66,1.21-1.18,2.21-1.54,2.89A6.27,6.27,0,0,1,121.18,205.07Z" style="fill:#e0e0e0"></path><path d="M88.82,190.92a35.76,35.76,0,0,0-5.64,21.27c6.41-3,14.3-8.72,17.9-14.8a35.48,35.48,0,0,0,4.83-20.32A35.83,35.83,0,0,0,88.82,190.92Z" style="fill:#ebebeb"></path><path d="M88.79,202.67a6.85,6.85,0,0,1,.45-1.12c.31-.71.79-1.73,1.42-3a87.23,87.23,0,0,1,5.54-9.33,88.83,88.83,0,0,1,6.65-8.56c.93-1,1.69-1.85,2.24-2.4a7.36,7.36,0,0,1,.88-.83,6.62,6.62,0,0,1-.76.93c-.52.59-1.25,1.43-2.14,2.49-1.78,2.12-4.16,5.11-6.54,8.6s-4.3,6.8-5.62,9.23c-.65,1.22-1.18,2.21-1.53,2.9A9,9,0,0,1,88.79,202.67Z" style="fill:#e0e0e0"></path><path d="M76.59,165.23a35.78,35.78,0,0,1-6.53-21c6.53,2.7,14.66,8.11,18.51,14a35.52,35.52,0,0,1,5.67,20.1A35.75,35.75,0,0,1,76.59,165.23Z" style="fill:#ebebeb"></path><path d="M76.06,153.5a8.13,8.13,0,0,0,.5,1.1c.34.7.87,1.69,1.55,2.9A85.61,85.61,0,0,0,84,166.58a87,87,0,0,0,7,8.28c1,1,1.76,1.78,2.33,2.31a6.79,6.79,0,0,0,.91.79,6.21,6.21,0,0,0-.8-.9c-.53-.56-1.3-1.38-2.24-2.4a106.89,106.89,0,0,1-6.89-8.32c-2.52-3.38-4.58-6.61-6-9-.71-1.19-1.27-2.16-1.65-2.83A6.48,6.48,0,0,0,76.06,153.5Z" style="fill:#e0e0e0"></path><path d="M108.48,165.25a35.78,35.78,0,0,1-6.53-21c6.53,2.71,14.66,8.11,18.51,14a35.41,35.41,0,0,1,5.66,20.1A35.78,35.78,0,0,1,108.48,165.25Z" style="fill:#ebebeb"></path><path d="M108,153.52a8.86,8.86,0,0,0,.5,1.1c.34.7.86,1.69,1.54,2.9a86.53,86.53,0,0,0,12.93,17.35c1,1,1.77,1.79,2.34,2.31a6.79,6.79,0,0,0,.91.79,7.13,7.13,0,0,0-.8-.9c-.54-.56-1.3-1.37-2.24-2.39-1.87-2-4.37-4.94-6.89-8.32s-4.58-6.61-6-9c-.71-1.18-1.27-2.15-1.65-2.83A6.62,6.62,0,0,0,108,153.52Z" style="fill:#e0e0e0"></path><path d="M159.45,187a4.9,4.9,0,0,0-.82-.4l-2.41-1-1.75-.73c-.64-.25-1.35-.5-2.11-.77-1.52-.54-3.24-1.21-5.19-1.77l-3.06-.93c-1.06-.32-2.19-.57-3.34-.87-2.31-.64-4.82-1.11-7.46-1.65a132.44,132.44,0,0,0-17.37-2,133.26,133.26,0,0,0-17.48.51c-2.68.32-5.22.58-7.57,1-1.18.21-2.32.36-3.41.59l-3.12.67c-2,.39-3.76.92-5.33,1.32l-2.17.59-1.8.58-2.48.82a7.12,7.12,0,0,0-.86.32,4.61,4.61,0,0,0,.89-.21l2.51-.73,1.81-.53c.67-.18,1.4-.35,2.18-.55,1.57-.37,3.33-.87,5.33-1.24l3.12-.63c1.08-.21,2.22-.36,3.4-.56,2.35-.41,4.88-.66,7.54-1a140,140,0,0,1,17.42-.47,137.16,137.16,0,0,1,17.3,1.94c2.63.52,5.13,1,7.44,1.59,1.15.3,2.28.54,3.34.84l3.05.9c2,.53,3.68,1.17,5.21,1.68.76.26,1.47.49,2.12.73l1.76.68,2.44.93A7.56,7.56,0,0,0,159.45,187Z" style="fill:#e0e0e0"></path><path d="M59.8,180A35.86,35.86,0,0,0,42,193c6.85,1.74,16.6,2.27,23.23-.18A35.45,35.45,0,0,0,81.8,180.08,35.86,35.86,0,0,0,59.8,180Z" style="fill:#ebebeb"></path><path d="M52.36,189.13a6.24,6.24,0,0,1,1.06-.58c.69-.36,1.7-.84,3-1.4A86.16,86.16,0,0,1,77.13,181c1.37-.23,2.48-.38,3.26-.46a8.79,8.79,0,0,1,1.2-.09,6.31,6.31,0,0,1-1.18.25c-.77.12-1.87.32-3.23.58a107.64,107.64,0,0,0-10.5,2.54,106.21,106.21,0,0,0-10.18,3.61c-1.28.53-2.31,1-3,1.28A7.26,7.26,0,0,1,52.36,189.13Z" style="fill:#e0e0e0"></path><path d="M168,92.22a40,40,0,0,0-24.38,2.94c5.73,5.42,15,11.23,22.75,12.45a39.69,39.69,0,0,0,23.07-3.4A39.9,39.9,0,0,0,168,92.22Z" style="fill:#ebebeb"></path><path d="M155.77,97a8.71,8.71,0,0,1,1.35,0c.86,0,2.11.11,3.66.25a96.71,96.71,0,0,1,23.58,5.24c1.46.53,2.63,1,3.42,1.33a7,7,0,0,1,1.22.57,8,8,0,0,1-1.28-.41c-.81-.29-2-.7-3.46-1.18a120.33,120.33,0,0,0-11.62-3.23c-4.6-1-8.83-1.65-11.9-2-1.53-.18-2.77-.31-3.64-.39A7,7,0,0,1,155.77,97Z" style="fill:#e0e0e0"></path><path d="M182.79,122.41a34.85,34.85,0,0,0-19.87,8.12c6.09,3.24,15.2,6,22.05,5.22a34.52,34.52,0,0,0,18.65-8.19A34.87,34.87,0,0,0,182.79,122.41Z" style="fill:#ebebeb"></path><path d="M173.63,129.29a8.39,8.39,0,0,1,1.14-.31c.73-.17,1.81-.39,3.14-.63a85.44,85.44,0,0,1,10.51-1.18,84,84,0,0,1,10.58.15c1.35.11,2.44.22,3.19.32a7.33,7.33,0,0,1,1.16.2,6.6,6.6,0,0,1-1.18,0c-.75-.06-1.84-.13-3.19-.2a103.62,103.62,0,0,0-10.54,0c-4.11.2-7.82.65-10.49,1.05-1.33.21-2.41.38-3.15.52A6.55,6.55,0,0,1,173.63,129.29Z" style="fill:#e0e0e0"></path><path d="M195.75,99.68a34.89,34.89,0,0,1,9.8-19.09c2.7,6.34,4.67,15.65,3.31,22.41a34.67,34.67,0,0,1-9.77,17.88A34.93,34.93,0,0,1,195.75,99.68Z" style="fill:#ebebeb"></path><path d="M203.4,91.15a6.06,6.06,0,0,0-.41,1.1c-.24.72-.55,1.77-.9,3.08a84,84,0,0,0-2.84,20.92c0,1.35,0,2.45.05,3.21a7.46,7.46,0,0,0,.09,1.17,6.12,6.12,0,0,0,.06-1.18c0-.75,0-1.84.08-3.19a100.84,100.84,0,0,1,2.83-20.86c.32-1.31.59-2.37.78-3.1A8.12,8.12,0,0,0,203.4,91.15Z" style="fill:#e0e0e0"></path><path d="M184.42,71.2a34.14,34.14,0,0,1,14.09-15.54c.94,6.67.44,16-2.56,22A33.79,33.79,0,0,1,182.2,92.05,34.17,34.17,0,0,1,184.42,71.2Z" style="fill:#ebebeb"></path><path d="M193.8,65.08a6.65,6.65,0,0,0-.66.94c-.41.62-1,1.53-1.63,2.68a82.14,82.14,0,0,0-8,19c-.36,1.28-.61,2.32-.77,3a7.21,7.21,0,0,0-.21,1.13,6.15,6.15,0,0,0,.36-1.09c.19-.72.49-1.74.88-3a99.87,99.87,0,0,1,8-19c.63-1.16,1.15-2.09,1.52-2.73A6.67,6.67,0,0,0,193.8,65.08Z" style="fill:#e0e0e0"></path><path d="M246.2,172.22A1.64,1.64,0,0,0,246,172l-.73-.64-2.87-2.42-2.08-1.74-2.4-2.14c-1.72-1.55-3.72-3.27-5.79-5.31l-3.31-3.16c-1.13-1.1-2.27-2.31-3.47-3.52-2.43-2.41-4.85-5.15-7.45-8a244.11,244.11,0,0,1-15.54-19.6,230.64,230.64,0,0,1-13.2-21.26c-1.76-3.42-3.51-6.63-4.9-9.76-.72-1.55-1.45-3-2.09-4.49l-1.76-4.22c-1.17-2.66-2-5.15-2.84-7.32l-1.11-3-.83-2.58c-.5-1.52-.89-2.72-1.16-3.56-.13-.39-.24-.69-.32-.93A1.12,1.12,0,0,0,174,68s0,.11.08.33.15.55.26.94c.26.85.61,2.06,1.07,3.59l.79,2.6c.33.94.68,2,1.07,3,.78,2.18,1.61,4.69,2.77,7.37l1.73,4.23c.63,1.47,1.35,3,2.06,4.52,1.38,3.14,3.12,6.37,4.87,9.8a226.45,226.45,0,0,0,13.19,21.34,237.37,237.37,0,0,0,15.62,19.62c2.61,2.83,5,5.57,7.5,8,1.21,1.21,2.35,2.41,3.5,3.51l3.33,3.14c2.1,2,4.12,3.73,5.86,5.25l2.44,2.12,2.11,1.7,2.93,2.35.77.59A1.37,1.37,0,0,0,246.2,172.22Z" style="fill:#e0e0e0"></path><path d="M105.18,102.55A20.87,20.87,0,0,0,124.91,94c.86-1.23,1.58-2.91.75-4.16s-2.86-1.21-4.41-.79a24.53,24.53,0,0,0-15.16,12.32,28.12,28.12,0,0,0,4.78-15.62c0-2.11-.55-4.64-2.53-5.33s-3.9.84-5.11,2.47a16.52,16.52,0,0,0,.4,19.62,15.55,15.55,0,0,0-16-7.58c-2.39.45-5.07,2.13-4.79,4.54.17,1.47,1.41,2.56,2.65,3.37a19.85,19.85,0,0,0,16.42,2.26A17.39,17.39,0,0,0,88,118.24c-.46,2.11-.37,4.64,1.29,6,2.1,1.75,5.32.64,7.54-1A22.78,22.78,0,0,0,106.22,106a12.93,12.93,0,0,0,5.84,10.54c2.31,1.49,5.93,1.9,7.38-.44s-.29-5.11-2.14-7a32.24,32.24,0,0,0-11.93-7.67" style="fill:#ebebeb"></path><path d="M118.25,95.33c.06.22-3.59,1.09-7.5,3.43s-6.45,5.09-6.61,4.93,2.19-3.18,6.24-5.55S118.24,95.15,118.25,95.33Z" style="fill:#e0e0e0"></path><path d="M107.5,89.88c.19.12-1.53,2.69-2.11,6.36s-.2,6.71-.45,6.73-.89-3-.27-6.86S107.38,89.74,107.5,89.88Z" style="fill:#e0e0e0"></path><path d="M92.52,100.59c-.06-.16,2.88-1,6.55-.43s6.11,2.62,6,2.74-2.56-1.48-6.08-2S92.55,100.83,92.52,100.59Z" style="fill:#e0e0e0"></path><path d="M102.31,104.61a2.55,2.55,0,0,1,2.3-4.1,7.11,7.11,0,0,0,.21,2.34,10.64,10.64,0,0,0-2.51,1.76" style="fill:#fafafa"></path><path d="M94.1,119.1a9,9,0,0,1,.7-2.87A26.25,26.25,0,0,1,103,104.7a8.69,8.69,0,0,1,2.49-1.6c.15.18-3.62,2.73-6.78,7.23S94.33,119.19,94.1,119.1Z" style="fill:#e0e0e0"></path><path d="M165.21,51.64a24.57,24.57,0,0,0,24.89-4.53c1.31-1.18,2.58-2.91,2-4.57s-2.95-2.15-4.82-2.08a28.84,28.84,0,0,0-20.67,10,33.15,33.15,0,0,0,9.67-16.61c.56-2.41.61-5.45-1.48-6.78s-4.69-.08-6.5,1.46a19.43,19.43,0,0,0-4.8,22.57,18.28,18.28,0,0,0-16.33-13c-2.86-.13-6.38,1.08-6.7,3.91-.2,1.73.92,3.31,2.13,4.57a23.35,23.35,0,0,0,18.19,7A20.42,20.42,0,0,0,141.38,65c-1.09,2.3-1.66,5.21-.13,7.24,1.93,2.57,5.92,2.15,8.89.92a26.81,26.81,0,0,0,15.35-17.33,15.18,15.18,0,0,0,3.86,13.63c2.25,2.32,6.29,3.76,8.57,1.48s1-5.93-.58-8.58a37.7,37.7,0,0,0-11.6-12" style="fill:#ebebeb"></path><path d="M182.11,46.87c0,.27-4.4.29-9.5,1.92s-8.75,4.1-8.89,3.87,3.36-3,8.63-4.69S182.14,46.66,182.11,46.87Z" style="fill:#e0e0e0"></path><path d="M171.26,37.75c.19.19-2.47,2.67-4.12,6.71s-2,7.63-2.31,7.59-.21-3.71,1.52-7.92S171.16,37.56,171.26,37.75Z" style="fill:#e0e0e0"></path><path d="M151.25,46c0-.19,3.57-.41,7.61,1.27S165.15,51.9,165,52s-2.53-2.38-6.42-3.94S151.22,46.28,151.25,46Z" style="fill:#e0e0e0"></path><path d="M161.38,53.23a3,3,0,0,1,3.73-4.08,8.43,8.43,0,0,0-.39,2.73,12.19,12.19,0,0,0-3.34,1.35" style="fill:#fafafa"></path><path d="M148.1,67.62a10.42,10.42,0,0,1,1.57-3.1,30.54,30.54,0,0,1,5.48-6.36,31,31,0,0,1,7-4.65,10.25,10.25,0,0,1,3.27-1.16c.12.25-4.87,2.15-9.7,6.45S148.34,67.77,148.1,67.62Z" style="fill:#e0e0e0"></path><path d="M119.38,329.39a35.81,35.81,0,0,1-15.85-15.26c7-.78,16.79,0,23,3.37,7,3.88,11.39,8.3,14.51,14.49A35.2,35.2,0,0,1,119.38,329.39Z" style="fill:#ebebeb"></path><path d="M113.26,319.36a6.88,6.88,0,0,0,1,.73c.63.44,1.57,1.06,2.75,1.79a88.12,88.12,0,0,0,9.57,5.1,86.71,86.71,0,0,0,10.13,3.86c1.33.41,2.41.71,3.16.9A6.06,6.06,0,0,0,141,332a6.3,6.3,0,0,0-1.14-.4c-.74-.23-1.8-.58-3.11-1a106.36,106.36,0,0,1-10.05-4c-3.84-1.75-7.2-3.58-9.59-5-1.2-.7-2.16-1.28-2.82-1.69A7.12,7.12,0,0,0,113.26,319.36Z" style="fill:#e0e0e0"></path><path d="M92.93,348.24A35.78,35.78,0,0,1,77.08,333c7-.78,16.75,0,23,3.36a35.59,35.59,0,0,1,14.67,14.87A35.77,35.77,0,0,1,92.93,348.24Z" style="fill:#ebebeb"></path><path d="M86.81,338.22a7.48,7.48,0,0,0,1,.72c.63.45,1.57,1.06,2.75,1.79a87,87,0,0,0,19.7,9c1.33.41,2.41.71,3.16.89a8.22,8.22,0,0,0,1.18.26,6.71,6.71,0,0,0-1.14-.41c-.74-.23-1.8-.57-3.11-1-2.62-.89-6.21-2.22-10-4a107.81,107.81,0,0,1-9.59-5c-1.2-.7-2.16-1.28-2.82-1.68A6.09,6.09,0,0,0,86.81,338.22Z" style="fill:#e0e0e0"></path><path d="M95.8,376.55a35.71,35.71,0,0,0,5.32,21.34c4.18-5.69,8.32-14.53,8.54-21.6a35.53,35.53,0,0,0-5.58-20.12A35.78,35.78,0,0,0,95.8,376.55Z" style="fill:#ebebeb"></path><path d="M101.44,386.85a6.57,6.57,0,0,1-.15-1.2c-.07-.77-.13-1.89-.18-3.28a86.7,86.7,0,0,1,2-21.54c.31-1.36.58-2.44.8-3.19a6.45,6.45,0,0,1,.37-1.15,7.47,7.47,0,0,1-.22,1.19c-.17.75-.4,1.85-.67,3.21a104.54,104.54,0,0,0-2,21.48c0,1.38,0,2.5.06,3.27A6.65,6.65,0,0,1,101.44,386.85Z" style="fill:#e0e0e0"></path><path d="M123.05,360a35.88,35.88,0,0,0,5.32,21.35c4.18-5.7,8.32-14.54,8.54-21.6a35.48,35.48,0,0,0-5.58-20.13A35.81,35.81,0,0,0,123.05,360Z" style="fill:#ebebeb"></path><path d="M128.69,370.29a6,6,0,0,1-.14-1.19c-.08-.78-.14-1.9-.19-3.28a87.64,87.64,0,0,1,.35-10.84,89.43,89.43,0,0,1,1.7-10.71c.31-1.35.58-2.44.8-3.19a6.12,6.12,0,0,1,.37-1.14,6.24,6.24,0,0,1-.22,1.18c-.17.76-.4,1.85-.67,3.21-.54,2.71-1.17,6.49-1.58,10.69s-.48,8-.46,10.79c0,1.38,0,2.5,0,3.28A6.56,6.56,0,0,1,128.69,370.29Z" style="fill:#e0e0e0"></path><path d="M155.35,315a5.66,5.66,0,0,1-.5.76l-1.53,2.13-1.11,1.53c-.42.55-.9,1.12-1.4,1.75-1,1.25-2.15,2.72-3.53,4.21l-2.13,2.38c-.74.82-1.57,1.62-2.41,2.48-1.64,1.74-3.54,3.45-5.51,5.28a134.55,134.55,0,0,1-13.82,10.71,134.56,134.56,0,0,1-15.22,8.63c-2.45,1.11-4.76,2.21-7,3.05-1.12.44-2.18.9-3.23,1.27l-3,1c-1.91.71-3.69,1.17-5.24,1.64-.77.22-1.49.44-2.16.62l-1.84.43-2.55.59a5.18,5.18,0,0,1-.9.17,6,6,0,0,1,.88-.27l2.52-.69,1.82-.48c.66-.19,1.38-.43,2.15-.66,1.53-.49,3.3-1,5.19-1.71l3-1.07c1-.38,2.09-.85,3.2-1.29,2.22-.86,4.51-2,7-3.09a142.12,142.12,0,0,0,15.13-8.63,140.14,140.14,0,0,0,13.79-10.63c2-1.82,3.88-3.51,5.53-5.23.83-.85,1.67-1.64,2.42-2.45l2.14-2.35c1.4-1.47,2.54-2.91,3.58-4.14.52-.62,1-1.18,1.44-1.72l1.15-1.5,1.6-2.06A6.23,6.23,0,0,1,155.35,315Z" style="fill:#e0e0e0"></path><path d="M73.76,372.6a35.8,35.8,0,0,1-21.92-1.82c4.95-5,13-10.55,20-11.9a35.52,35.52,0,0,1,20.76,2.27A35.81,35.81,0,0,1,73.76,372.6Z" style="fill:#ebebeb"></path><path d="M62.69,368.69a6.5,6.5,0,0,0,1.21-.05c.77-.05,1.89-.17,3.26-.35a86.36,86.36,0,0,0,10.64-2.08,88,88,0,0,0,10.3-3.4c1.29-.52,2.32-1,3-1.3a6.45,6.45,0,0,0,1.07-.55,6.65,6.65,0,0,0-1.13.4c-.72.29-1.77.7-3.06,1.18-2.59,1-6.22,2.2-10.3,3.28s-7.84,1.77-10.58,2.19c-1.36.21-2.47.37-3.24.47A6.83,6.83,0,0,0,62.69,368.69Z" style="fill:#e0e0e0"></path><path d="M130.2,428.5a20.88,20.88,0,0,1,21.33-2.79c1.37.62,2.85,1.69,2.78,3.19s-1.83,2.51-3.37,2.94a24.52,24.52,0,0,1-19.34-2.78A28.24,28.24,0,0,1,143.73,440c1.08,1.8,1.91,4.26.56,5.88s-3.77,1.28-5.64.5a16.54,16.54,0,0,1-9.75-17A15.55,15.55,0,0,1,119,444.1c-2.28.84-5.44.78-6.44-1.44-.61-1.34-.11-2.92.54-4.24A19.82,19.82,0,0,1,126.06,428a17.37,17.37,0,0,1-18.63-4.17c-1.48-1.58-2.7-3.79-2-5.83.9-2.58,4.24-3.28,7-3.06A22.77,22.77,0,0,1,129.33,425a13,13,0,0,1-.4-12.05c1.22-2.46,4.11-4.68,6.56-3.42s2.37,4.54,1.76,7.1A32.35,32.35,0,0,1,131,429.38" style="fill:#ebebeb"></path><path d="M145.12,428c-.06-.22-3.64.91-8.19.91s-8.15-1.05-8.21-.83,3.52,1.6,8.21,1.56S145.21,428.14,145.12,428Z" style="fill:#e0e0e0"></path><path d="M138.7,438.18c.11-.2-2.69-1.52-5.07-4.37s-3.62-5.65-3.84-5.54.79,3.06,3.28,6S138.67,438.36,138.7,438.18Z" style="fill:#e0e0e0"></path><path d="M120.35,436.69c0,.16,3-.59,5.84-3s3.89-5.39,3.71-5.42-1.44,2.59-4.18,4.86S120.25,436.47,120.35,436.69Z" style="fill:#e0e0e0"></path><path d="M126.68,428.21a2.56,2.56,0,0,0,4.08,2.34,7.16,7.16,0,0,1-1-2.12,10.66,10.66,0,0,1-3.06-.22" style="fill:#fafafa"></path><path d="M112.19,420a8.48,8.48,0,0,0,2.08,2.11,26.24,26.24,0,0,0,13,5.68,8.38,8.38,0,0,0,3,.09c0-.23-4.5-.48-9.53-2.71S112.34,419.81,112.19,420Z" style="fill:#e0e0e0"></path><path d="M87,284.36a39.91,39.91,0,0,0-6.28,23.74c7.15-3.32,16-9.74,20-16.53a39.61,39.61,0,0,0,5.37-22.69A40,40,0,0,0,87,284.36Z" style="fill:#ebebeb"></path><path d="M87,297.47a10.55,10.55,0,0,1,.51-1.25c.34-.79.88-1.92,1.58-3.3a96.52,96.52,0,0,1,6.18-10.41,94.24,94.24,0,0,1,7.42-9.56c1-1.16,1.89-2.08,2.5-2.69a8.05,8.05,0,0,1,1-.93,8.37,8.37,0,0,1-.85,1.05c-.57.64-1.39,1.59-2.39,2.77a118.63,118.63,0,0,0-7.29,9.61c-2.65,3.89-4.8,7.59-6.27,10.3-.73,1.36-1.31,2.47-1.71,3.24A6.21,6.21,0,0,1,87,297.47Z" style="fill:#e0e0e0"></path><path d="M120.53,281.76a34.81,34.81,0,0,0,.19,21.46c5.26-4.46,11.2-11.9,13-18.55a34.65,34.65,0,0,0-.71-20.36A34.84,34.84,0,0,0,120.53,281.76Z" style="fill:#ebebeb"></path><path d="M123.53,292.81a8.88,8.88,0,0,1,.14-1.17c.1-.75.3-1.82.57-3.15a85.21,85.21,0,0,1,6.84-20c.6-1.22,1.11-2.19,1.49-2.85a6,6,0,0,1,.61-1,7.81,7.81,0,0,1-.48,1.07c-.33.68-.8,1.67-1.36,2.9a103.29,103.29,0,0,0-3.93,9.78c-1.33,3.89-2.29,7.5-2.9,10.13-.3,1.31-.54,2.38-.69,3.12A6,6,0,0,1,123.53,292.81Z" style="fill:#e0e0e0"></path><path d="M104.21,261.3a34.85,34.85,0,0,1-14.12-16.16c6.89-.17,16.28,1.45,22,5.22a34.51,34.51,0,0,1,13,15.69A34.84,34.84,0,0,1,104.21,261.3Z" style="fill:#ebebeb"></path><path d="M99.11,251a5.5,5.5,0,0,0,.88.79c.57.49,1.43,1.17,2.52,2a84.93,84.93,0,0,0,8.87,5.76,86.28,86.28,0,0,0,9.51,4.62c1.26.51,2.28.89,3,1.14a6.62,6.62,0,0,0,1.13.34,7.77,7.77,0,0,0-1.07-.49c-.7-.28-1.71-.71-3-1.25-2.47-1.08-5.84-2.68-9.43-4.7s-6.7-4.09-8.9-5.65c-1.1-.78-2-1.42-2.59-1.87A7,7,0,0,0,99.11,251Z" style="fill:#e0e0e0"></path><path d="M73.55,261.29a34.15,34.15,0,0,1-9.22-18.83c6.55,1.59,15,5.49,19.49,10.51a33.83,33.83,0,0,1,8.28,18.1A34.1,34.1,0,0,1,73.55,261.29Z" style="fill:#ebebeb"></path><path d="M71.34,250.32a8.7,8.7,0,0,0,.63,1c.42.61,1.07,1.46,1.88,2.5a83,83,0,0,0,14.72,14.46c1.06.8,1.93,1.42,2.54,1.83a5.58,5.58,0,0,0,1,.61,8.22,8.22,0,0,0-.89-.73c-.59-.45-1.43-1.1-2.46-1.93-2.06-1.64-4.84-4-7.71-6.82s-5.28-5.56-7-7.59c-.84-1-1.51-1.84-2-2.42A5.14,5.14,0,0,0,71.34,250.32Z" style="fill:#e0e0e0"></path><path d="M190.27,241.27l-.31.14-.86.45-3.31,1.76-2.39,1.29c-.88.45-1.85.93-2.88,1.44-2.07,1-4.41,2.25-7.07,3.42l-4.16,1.9c-1.45.65-3,1.26-4.56,1.92-3.14,1.37-6.58,2.61-10.18,4a246.18,246.18,0,0,1-24,7.19A232.76,232.76,0,0,1,106,269.14c-3.83.37-7.46.81-10.88.94-1.71.1-3.36.22-4.94.28l-4.57.08c-2.91.1-5.54,0-7.85-.07l-3.22-.09-2.71-.18-3.74-.24-1-.05h-.34l.33.06,1,.1,3.74.34,2.7.23,3.23.13c2.31.07,5,.23,7.86.15l4.58-.05c1.59,0,3.24-.16,4.95-.24,3.43-.12,7.08-.54,10.92-.9a224,224,0,0,0,24.7-4.36,237.86,237.86,0,0,0,24-7.24c3.6-1.38,7.05-2.64,10.18-4,1.58-.68,3.11-1.3,4.56-2l4.15-1.93c2.66-1.2,5-2.45,7-3.5l2.86-1.48,2.37-1.33,3.26-1.86.84-.49Z" style="fill:#e0e0e0"></path><path d="M48.28,271.9a24.57,24.57,0,0,0,5-24.79c-.61-1.66-1.75-3.48-3.52-3.52s-3.09,1.94-3.72,3.71a28.89,28.89,0,0,0,1.69,22.92A33.06,33.06,0,0,0,35.88,255.1c-2-1.42-4.84-2.59-6.85-1.14s-1.81,4.32-1.05,6.58a19.45,19.45,0,0,0,19.19,12.81,18.28,18.28,0,0,0-18.09,10.37c-1.18,2.61-1.36,6.32,1.16,7.67,1.53.83,3.42.37,5-.28a23.33,23.33,0,0,0,13.23-14.32A20.44,20.44,0,0,0,51.87,299c1.73,1.86,4.23,3.47,6.68,2.8,3.1-.85,4.19-4.7,4.15-7.92A26.83,26.83,0,0,0,52.27,273.2a15.21,15.21,0,0,0,14.09,1.45c3-1.23,5.83-4.45,4.55-7.42s-5.13-3.15-8.19-2.63a37.9,37.9,0,0,0-15.42,6.34" style="fill:#ebebeb"></path><path d="M50.09,254.44c.26.09-1.35,4.19-1.72,9.54s.56,9.64.3,9.69-1.59-4.25-1.16-9.76S49.92,254.33,50.09,254.44Z" style="fill:#e0e0e0"></path><path d="M37.61,261.14c.25-.11,1.56,3.28,4.71,6.31s6.34,4.7,6.19,4.95-3.52-1.17-6.79-4.34S37.4,261.17,37.61,261.14Z" style="fill:#e0e0e0"></path><path d="M37.87,282.79c-.19-.05.94-3.47,4-6.61s6.63-4.13,6.65-3.9-3.15,1.47-6,4.5S38.12,282.92,37.87,282.79Z" style="fill:#e0e0e0"></path><path d="M48.33,276.05a3,3,0,0,1-2.41-5,8.54,8.54,0,0,0,2.4,1.37,12.4,12.4,0,0,0,0,3.6" style="fill:#fafafa"></path><path d="M56.79,293.71a10.06,10.06,0,0,1-2.3-2.61,30.82,30.82,0,0,1-5.61-15.66A10.27,10.27,0,0,1,49,272c.28,0,.2,5.32,2.41,11.4S57,293.55,56.79,293.71Z" style="fill:#e0e0e0"></path><path d="M364.85,197.7a35.86,35.86,0,0,1,7.95,20.52c-6.7-2.25-15.18-7.1-19.43-12.75a34.25,34.25,0,0,1-7-19.25A35.16,35.16,0,0,1,364.85,197.7Z" style="fill:#ebebeb"></path><path d="M366.17,209.37a6.45,6.45,0,0,0-.57-1.06c-.38-.67-1-1.63-1.74-2.79a85.85,85.85,0,0,0-14.08-16.43c-1-.93-1.88-1.66-2.49-2.15a7.14,7.14,0,0,0-1-.72,6.8,6.8,0,0,0,.86.84c.57.52,1.39,1.28,2.4,2.24a105.45,105.45,0,0,1,14,16.38c.79,1.14,1.41,2.07,1.84,2.71A6.62,6.62,0,0,0,366.17,209.37Z" style="fill:#e0e0e0"></path><path d="M396.78,191.76a35.76,35.76,0,0,1,8,20.51c-6.7-2.25-15.18-7.09-19.42-12.74a35.44,35.44,0,0,1-7-19.67A35.75,35.75,0,0,1,396.78,191.76Z" style="fill:#ebebeb"></path><path d="M398.11,203.43a6.77,6.77,0,0,0-.57-1.07c-.39-.67-1-1.62-1.74-2.78a85.54,85.54,0,0,0-6.53-8.66,87.19,87.19,0,0,0-7.56-7.78c-1-.93-1.88-1.66-2.49-2.14a6.82,6.82,0,0,0-1-.73,7.2,7.2,0,0,0,.86.85c.57.52,1.4,1.28,2.4,2.23,2,1.91,4.69,4.63,7.44,7.83a107.54,107.54,0,0,1,6.6,8.56c.79,1.13,1.42,2.06,1.84,2.71A6.63,6.63,0,0,0,398.11,203.43Z" style="fill:#e0e0e0"></path><path d="M406.12,164.88a35.83,35.83,0,0,0,4.18-21.6c-6.2,3.41-13.68,9.67-16.86,16a35.5,35.5,0,0,0-3.42,20.6A35.78,35.78,0,0,0,406.12,164.88Z" style="fill:#ebebeb"></path><path d="M405.35,153.16a6.75,6.75,0,0,1-.37,1.15c-.26.73-.68,1.77-1.22,3.05a87.15,87.15,0,0,1-4.89,9.68,86.16,86.16,0,0,1-6.05,9c-.85,1.1-1.56,2-2.07,2.56a7.34,7.34,0,0,1-.82.88,6.71,6.71,0,0,1,.7-1c.47-.62,1.14-1.51,2-2.63a108,108,0,0,0,5.94-9c2.13-3.64,3.82-7.07,5-9.59.57-1.25,1-2.28,1.33-3A6.56,6.56,0,0,1,405.35,153.16Z" style="fill:#e0e0e0"></path><path d="M374.43,168.4a35.75,35.75,0,0,0,4.17-21.6c-6.19,3.41-13.67,9.68-16.85,16a35.51,35.51,0,0,0-3.42,20.6A35.83,35.83,0,0,0,374.43,168.4Z" style="fill:#ebebeb"></path><path d="M373.66,156.68a7.63,7.63,0,0,1-.38,1.15c-.26.73-.67,1.78-1.21,3a88,88,0,0,1-4.89,9.68,86.54,86.54,0,0,1-6.06,9c-.84,1.1-1.55,2-2.06,2.56a6.43,6.43,0,0,1-.82.88,8.88,8.88,0,0,1,.69-1c.48-.61,1.15-1.51,2-2.63a107.83,107.83,0,0,0,5.93-9c2.13-3.65,3.83-7.08,5-9.59.57-1.26,1-2.29,1.33-3A6.56,6.56,0,0,1,373.66,156.68Z" style="fill:#e0e0e0"></path><path d="M326.15,195.62a5.42,5.42,0,0,1,.78-.48l2.28-1.28,1.65-.92c.61-.32,1.29-.64,2-1,1.45-.7,3.08-1.56,5-2.33l2.93-1.26c1-.43,2.11-.81,3.23-1.23,2.22-.89,4.67-1.64,7.23-2.47a134.79,134.79,0,0,1,17.05-3.88,133,133,0,0,1,17.43-1.41c2.69,0,5.25,0,7.63.18,1.2.07,2.35.1,3.46.21l3.17.32c2,.17,3.84.5,5.44.73.8.13,1.54.23,2.22.35l1.85.38,2.56.54a8.47,8.47,0,0,1,.89.22,5.44,5.44,0,0,1-.91-.11l-2.57-.45-1.86-.33-2.23-.3c-1.59-.2-3.4-.5-5.43-.65l-3.17-.28c-1.1-.1-2.25-.12-3.44-.18-2.38-.16-4.93-.12-7.6-.13a136,136,0,0,0-17.36,1.45,138.46,138.46,0,0,0-17,3.82c-2.55.81-5,1.54-7.22,2.41-1.11.41-2.2.78-3.23,1.2L338,190c-1.89.75-3.53,1.58-5,2.25-.73.34-1.41.65-2,1l-1.67.87L327,195.23A5.2,5.2,0,0,1,326.15,195.62Z" style="fill:#e0e0e0"></path><path d="M424.44,177.75a35.82,35.82,0,0,1,19.11,10.89c-6.62,2.49-16.25,4.09-23.11,2.38a35.38,35.38,0,0,1-17.86-10.81A35.78,35.78,0,0,1,424.44,177.75Z" style="fill:#ebebeb"></path><path d="M432.83,186a6.79,6.79,0,0,0-1.12-.47c-.72-.28-1.78-.64-3.11-1.06a87.19,87.19,0,0,0-10.52-2.6,85.43,85.43,0,0,0-10.77-1.25c-1.39-.08-2.51-.1-3.29-.1a6,6,0,0,0-1.2,0,9.24,9.24,0,0,0,1.2.11c.77,0,1.89.11,3.27.22A107.65,107.65,0,0,1,418,182.24c4.15.76,7.85,1.7,10.51,2.47,1.33.38,2.4.71,3.14.94A7.82,7.82,0,0,0,432.83,186Z" style="fill:#e0e0e0"></path><path d="M324.84,87.46a40,40,0,0,1,24.55-.54c-4.91,6.18-13.22,13.24-20.76,15.54a39.61,39.61,0,0,1-23.32-.1A40,40,0,0,1,324.84,87.46Z" style="fill:#ebebeb"></path><path d="M337.59,90.51a8,8,0,0,0-1.34.19c-.85.15-2.08.41-3.58.77A96.73,96.73,0,0,0,310.06,100c-1.37.72-2.46,1.34-3.2,1.79a7.92,7.92,0,0,0-1.13.74A9.21,9.21,0,0,0,307,102c.76-.4,1.87-1,3.26-1.66,2.76-1.38,6.64-3.17,11.05-4.84s8.5-2.88,11.48-3.67c1.5-.4,2.71-.7,3.55-.9A8.31,8.31,0,0,0,337.59,90.51Z" style="fill:#e0e0e0"></path><path d="M314.43,119.45a34.85,34.85,0,0,1,20.82,5.22c-5.57,4.07-14.2,8.1-21.09,8.3a34.58,34.58,0,0,1-19.62-5.48A34.87,34.87,0,0,1,314.43,119.45Z" style="fill:#ebebeb"></path><path d="M324.47,125a8.38,8.38,0,0,0-1.16-.14c-.76-.07-1.85-.14-3.2-.18a84.64,84.64,0,0,0-10.58.32,86.85,86.85,0,0,0-10.45,1.64c-1.32.3-2.38.57-3.11.78a7.71,7.71,0,0,0-1.12.35,5.65,5.65,0,0,0,1.16-.2c.74-.17,1.81-.39,3.13-.65a105.14,105.14,0,0,1,10.43-1.53c4.1-.38,7.83-.46,10.53-.44l3.2.06A6.24,6.24,0,0,0,324.47,125Z" style="fill:#e0e0e0"></path><path d="M298.38,98.78A34.9,34.9,0,0,0,286,81.27c-1.78,6.66-2.41,16.16-.1,22.66a34.55,34.55,0,0,0,12.2,16.31A34.89,34.89,0,0,0,298.38,98.78Z" style="fill:#ebebeb"></path><path d="M289.6,91.42a5.73,5.73,0,0,1,.56,1c.34.67.8,1.67,1.33,2.91a84.34,84.34,0,0,1,5.78,20.31c.2,1.34.33,2.43.4,3.18a6.5,6.5,0,0,1,.07,1.18,8.63,8.63,0,0,1-.22-1.16c-.11-.75-.29-1.82-.53-3.15-.47-2.66-1.23-6.31-2.35-10.28s-2.41-7.46-3.41-10c-.5-1.26-.91-2.27-1.21-3A8.18,8.18,0,0,1,289.6,91.42Z" style="fill:#e0e0e0"></path><path d="M305.56,69A34.1,34.1,0,0,0,289.42,55.6c0,6.73,1.82,15.86,5.64,21.41a33.9,33.9,0,0,0,15.66,12.3A34.12,34.12,0,0,0,305.56,69Z" style="fill:#ebebeb"></path><path d="M295.41,64.26a6.19,6.19,0,0,1,.79.84c.49.55,1.17,1.37,2,2.41A83.06,83.06,0,0,1,304.05,76a84.79,84.79,0,0,1,4.74,9.18c.53,1.22.93,2.21,1.19,2.9a5.45,5.45,0,0,1,.36,1.09,7.47,7.47,0,0,1-.5-1c-.3-.68-.74-1.65-1.3-2.84A98.94,98.94,0,0,0,298,67.68c-.79-1.06-1.44-1.91-1.9-2.49A6.28,6.28,0,0,1,295.41,64.26Z" style="fill:#e0e0e0"></path><path d="M258.71,177.74l.21-.26.64-.74,2.49-2.8,1.81-2,2.08-2.46c1.48-1.78,3.22-3.76,5-6.08l2.82-3.59c1-1.26,1.92-2.61,2.94-4,2.07-2.73,4.08-5.79,6.24-9a243.15,243.15,0,0,0,12.62-21.6,229,229,0,0,0,10-22.92c1.26-3.63,2.54-7.06,3.48-10.35.49-1.64,1-3.21,1.42-4.74s.79-3,1.15-4.42c.79-2.81,1.28-5.39,1.78-7.65.24-1.13.46-2.18.67-3.15s.32-1.87.45-2.67c.28-1.58.5-2.82.65-3.7q.12-.58.18-1l.08-.32a1,1,0,0,1,0,.33c0,.25-.08.57-.13,1-.13.88-.31,2.13-.55,3.71-.12.81-.26,1.71-.41,2.68s-.4,2-.63,3.17c-.47,2.27-.93,4.87-1.7,7.68-.35,1.42-.73,2.9-1.11,4.44s-.92,3.12-1.4,4.76c-.92,3.31-2.19,6.75-3.44,10.4a224,224,0,0,1-10,23,237.82,237.82,0,0,1-12.68,21.64c-2.18,3.18-4.21,6.23-6.3,8.95-1,1.37-2,2.72-3,4l-2.85,3.57c-1.79,2.31-3.55,4.27-5.05,6l-2.12,2.44-1.84,2-2.57,2.73c-.29.29-.51.53-.68.71S258.72,177.75,258.71,177.74Z" style="fill:#e0e0e0"></path><path d="M388.07,99.21a20.88,20.88,0,0,1-19.73-8.57c-.86-1.23-1.57-2.91-.74-4.16s2.86-1.21,4.4-.79A24.55,24.55,0,0,1,387.17,98a28.21,28.21,0,0,1-4.79-15.62c0-2.11.55-4.64,2.54-5.33s3.9.84,5.1,2.47a16.52,16.52,0,0,1-.4,19.62,15.56,15.56,0,0,1,16.05-7.58c2.38.45,5.06,2.13,4.78,4.54-.17,1.47-1.4,2.56-2.64,3.37a19.87,19.87,0,0,1-16.43,2.26,17.4,17.4,0,0,1,13.85,13.16c.45,2.11.37,4.64-1.29,6-2.1,1.75-5.32.63-7.55-1A22.77,22.77,0,0,1,387,102.63a13,13,0,0,1-5.84,10.54c-2.32,1.49-5.94,1.9-7.39-.44s.3-5.11,2.14-7a32.24,32.24,0,0,1,11.93-7.67" style="fill:#ebebeb"></path><path d="M375,92c-.06.22,3.58,1.09,7.49,3.43s6.45,5.09,6.62,4.93-2.19-3.18-6.25-5.55S375,91.81,375,92Z" style="fill:#e0e0e0"></path><path d="M385.76,86.54c-.2.12,1.53,2.69,2.11,6.36s.19,6.71.44,6.72.9-3,.28-6.85S385.88,86.4,385.76,86.54Z" style="fill:#e0e0e0"></path><path d="M400.74,97.25c.06-.16-2.89-1-6.56-.43s-6.11,2.62-6,2.74,2.56-1.48,6.08-2S400.7,97.49,400.74,97.25Z" style="fill:#e0e0e0"></path><path d="M391,101.27a2.55,2.55,0,0,0-2.3-4.1,7.11,7.11,0,0,1-.21,2.34,10.64,10.64,0,0,1,2.51,1.76" style="fill:#fafafa"></path><path d="M399.15,115.76a8.39,8.39,0,0,0-.7-2.87,26,26,0,0,0-8.2-11.53,8.59,8.59,0,0,0-2.48-1.6c-.15.18,3.62,2.73,6.78,7.23S398.93,115.85,399.15,115.76Z" style="fill:#e0e0e0"></path><path d="M321.81,46.9A24.58,24.58,0,0,1,296.53,46c-1.46-1-3-2.53-2.59-4.25s2.61-2.55,4.48-2.75a28.89,28.89,0,0,1,21.88,7A33,33,0,0,1,308.38,30.9c-.9-2.3-1.38-5.31.5-6.92s4.63-.74,6.65.53a19.45,19.45,0,0,1,8,21.66A18.28,18.28,0,0,1,337.81,31c2.8-.53,6.46.17,7.18,2.93.44,1.68-.45,3.41-1.46,4.82a23.36,23.36,0,0,1-17,9.5,20.42,20.42,0,0,1,20.78,8.49c1.41,2.12,2.39,4.92,1.16,7.15-1.55,2.82-5.56,3-8.67,2.17a26.76,26.76,0,0,1-17.65-15,15.25,15.25,0,0,1-1.89,14c-1.9,2.61-5.69,4.61-8.28,2.67s-1.86-5.72-.64-8.57a37.84,37.84,0,0,1,9.78-13.5" style="fill:#ebebeb"></path><path d="M304.41,44.57c0,.27,4.39-.33,9.67.56s9.24,2.81,9.35,2.57-3.75-2.54-9.21-3.42S304.34,44.37,304.41,44.57Z" style="fill:#e0e0e0"></path><path d="M313.85,34c-.16.21,2.82,2.29,5,6.06s3.08,7.26,3.36,7.18-.31-3.7-2.62-7.62S313.92,33.81,313.85,34Z" style="fill:#e0e0e0"></path><path d="M334.84,39.34c0-.19-3.6.1-7.37,2.33s-5.57,5.48-5.35,5.55,2.17-2.71,5.79-4.81S334.9,39.61,334.84,39.34Z" style="fill:#e0e0e0"></path><path d="M325.83,47.93a3,3,0,0,0-4.27-3.51,8.42,8.42,0,0,1,.77,2.65,12.14,12.14,0,0,1,3.5.86" style="fill:#fafafa"></path><path d="M341,60.3a10.18,10.18,0,0,0-2-2.85,30.89,30.89,0,0,0-13.91-9.13,10.29,10.29,0,0,0-3.41-.69c-.08.27,5.13,1.44,10.52,5S340.8,60.48,341,60.3Z" style="fill:#e0e0e0"></path><path d="M373.33,335.83a35.84,35.84,0,0,0,10.79-19.17c-6.95,1.27-16.09,4.79-21,9.84-5.63,5.74-8.52,11.23-9.72,18.06A35.25,35.25,0,0,0,373.33,335.83Z" style="fill:#ebebeb"></path><path d="M376.3,324.47a6.75,6.75,0,0,1-.71,1c-.48.61-1.21,1.47-2.12,2.51a88.36,88.36,0,0,1-7.7,7.64,87.29,87.29,0,0,1-8.59,6.62c-1.15.77-2.1,1.37-2.77,1.77a8.29,8.29,0,0,1-1.05.58,5.85,5.85,0,0,1,1-.72c.64-.43,1.56-1.07,2.69-1.87a107.92,107.92,0,0,0,8.49-6.69c3.17-2.78,5.86-5.5,7.75-7.52.94-1,1.69-1.84,2.21-2.42A6.22,6.22,0,0,1,376.3,324.47Z" style="fill:#e0e0e0"></path><path d="M404.09,346.27a35.84,35.84,0,0,0,10.79-19.17c-6.95,1.27-16,4.85-21,9.84a35.43,35.43,0,0,0-9.76,18.46A35.81,35.81,0,0,0,404.09,346.27Z" style="fill:#ebebeb"></path><path d="M407.06,334.91a7.16,7.16,0,0,1-.72,1c-.47.61-1.2,1.47-2.11,2.51a88.36,88.36,0,0,1-7.7,7.64,85.46,85.46,0,0,1-8.59,6.61c-1.15.78-2.1,1.38-2.77,1.77a7.8,7.8,0,0,1-1.05.59,5.85,5.85,0,0,1,1-.72c.64-.43,1.56-1.07,2.69-1.87a107.92,107.92,0,0,0,8.49-6.69c3.17-2.78,5.86-5.5,7.74-7.52.95-1,1.7-1.84,2.22-2.42A6.22,6.22,0,0,1,407.06,334.91Z" style="fill:#e0e0e0"></path><path d="M409.49,374.2a35.77,35.77,0,0,1,1.06,22c-5.65-4.26-12.16-11.53-14.4-18.23a35.48,35.48,0,0,1-.45-20.88A35.74,35.74,0,0,1,409.49,374.2Z" style="fill:#ebebeb"></path><path d="M407.06,385.69a7.22,7.22,0,0,0-.2-1.19c-.16-.76-.42-1.85-.77-3.19A87.35,87.35,0,0,0,402.63,371a86.36,86.36,0,0,0-4.71-9.76c-.68-1.21-1.26-2.17-1.68-2.82a6.4,6.4,0,0,0-.69-1,7.92,7.92,0,0,0,.55,1.08c.38.67.92,1.65,1.57,2.87,1.3,2.45,3,5.88,4.59,9.79a105,105,0,0,1,3.55,10.2c.39,1.32.69,2.4.89,3.15A6.72,6.72,0,0,0,407.06,385.69Z" style="fill:#e0e0e0"></path><path d="M378.63,366.2a35.81,35.81,0,0,1,1.05,22c-5.64-4.25-12.16-11.52-14.4-18.23a35.44,35.44,0,0,1-.45-20.87A35.76,35.76,0,0,1,378.63,366.2Z" style="fill:#ebebeb"></path><path d="M376.19,377.69a6,6,0,0,0-.2-1.19c-.15-.76-.42-1.86-.77-3.2A86.67,86.67,0,0,0,371.76,363a85.78,85.78,0,0,0-4.71-9.77c-.68-1.21-1.26-2.17-1.68-2.82a7.41,7.41,0,0,0-.68-1,6.63,6.63,0,0,0,.54,1.07c.38.67.92,1.66,1.57,2.88a104,104,0,0,1,8.14,20c.39,1.33.7,2.41.9,3.15A8.55,8.55,0,0,0,376.19,377.69Z" style="fill:#e0e0e0"></path><path d="M334.73,332.37a5.13,5.13,0,0,0,.7.59l2.07,1.6L339,335.7c.56.4,1.19.82,1.85,1.28,1.34.9,2.83,2,4.59,3l2.72,1.66c.95.58,2,1.1,3,1.69,2.07,1.19,4.39,2.28,6.8,3.46a134.77,134.77,0,0,0,16.32,6.28A133.37,133.37,0,0,0,391.37,357c2.66.36,5.19.75,7.58.91,1.19.1,2.34.23,3.45.29l3.19.13c2,.12,3.87.06,5.48.06.81,0,1.56,0,2.25,0l1.89-.11,2.61-.17a5.94,5.94,0,0,0,.91-.1,5.89,5.89,0,0,0-.92,0l-2.61.07-1.89.06c-.69,0-1.44,0-2.24,0-1.61,0-3.45,0-5.47-.13l-3.18-.17c-1.1-.06-2.24-.21-3.43-.31-2.38-.19-4.89-.59-7.54-1a126.06,126.06,0,0,1-33.25-10.12c-2.41-1.17-4.72-2.24-6.8-3.41-1-.57-2.07-1.09-3-1.65l-2.73-1.63c-1.77-1-3.27-2.06-4.62-2.93-.67-.45-1.31-.85-1.87-1.24l-1.54-1.1-2.13-1.52A7.35,7.35,0,0,0,334.73,332.37Z" style="fill:#e0e0e0"></path><path d="M429.46,364.07A35.77,35.77,0,0,0,449.93,356c-6.2-3.4-15.5-6.36-22.53-5.65a35.49,35.49,0,0,0-19.23,8.15A35.73,35.73,0,0,0,429.46,364.07Z" style="fill:#ebebeb"></path><path d="M438.94,357.14a7.07,7.07,0,0,1-1.17.3c-.76.17-1.86.38-3.23.61a86.4,86.4,0,0,1-21.63.78c-1.38-.13-2.5-.26-3.26-.38a8.3,8.3,0,0,1-1.19-.21,6,6,0,0,1,1.2.06c.78.06,1.89.15,3.27.24a106.33,106.33,0,0,0,10.81.17,107.88,107.88,0,0,0,10.76-.94c1.37-.19,2.48-.36,3.24-.48A6.8,6.8,0,0,1,438.94,357.14Z" style="fill:#e0e0e0"></path><path d="M388.86,433.57a20.9,20.9,0,0,0-21.51-.56c-1.29.76-2.65,2-2.43,3.47s2.08,2.3,3.66,2.57a24.53,24.53,0,0,0,18.95-4.77,28.15,28.15,0,0,0-10.93,12.14c-.89,1.91-1.46,4.44,0,5.91s3.88.88,5.67-.09a16.53,16.53,0,0,0,7.92-17.95,15.55,15.55,0,0,0,11.34,13.64c2.35.6,5.49.21,6.26-2.1.46-1.4-.2-2.92-1-4.17a19.86,19.86,0,0,0-13.93-9,17.37,17.37,0,0,0,18.1-6.09c1.31-1.72,2.29-4,1.37-6-1.16-2.48-4.56-2.82-7.24-2.32A22.83,22.83,0,0,0,389.36,430a13,13,0,0,0-.84-12c-1.48-2.33-4.58-4.23-6.88-2.72s-1.9,4.75-1,7.24a32.41,32.41,0,0,0,7.58,12" style="fill:#ebebeb"></path><path d="M374,434.61c0-.23,3.72.52,8.25.05s8-1.89,8.07-1.67-3.32,1.95-8,2.39S373.9,434.77,374,434.61Z" style="fill:#e0e0e0"></path><path d="M381.41,444.08c-.13-.18,2.52-1.79,4.59-4.87s3-6,3.25-5.91-.47,3.13-2.64,6.33S381.46,444.26,381.41,444.08Z" style="fill:#e0e0e0"></path><path d="M399.51,440.7c0,.16-3.05-.28-6.12-2.38s-4.43-4.95-4.25-5,1.7,2.42,4.66,4.39S399.58,440.47,399.51,440.7Z" style="fill:#e0e0e0"></path><path d="M392.33,432.92a2.55,2.55,0,0,1-3.81,2.75,7.61,7.61,0,0,0,.8-2.21,10.28,10.28,0,0,0,3-.54" style="fill:#fafafa"></path><path d="M405.89,423.24a8.78,8.78,0,0,1-1.85,2.31,25.78,25.78,0,0,1-5.67,4.35,26.52,26.52,0,0,1-6.63,2.65,8.7,8.7,0,0,1-2.93.4c-.06-.23,4.43-.95,9.2-3.69S405.72,423.08,405.89,423.24Z" style="fill:#e0e0e0"></path><path d="M391.83,278.92a39.83,39.83,0,0,1,7.12,23.5c-7.26-3.07-16.3-9.17-20.55-15.82a39.58,39.58,0,0,1-6.17-22.48A39.92,39.92,0,0,1,391.83,278.92Z" style="fill:#ebebeb"></path><path d="M392.32,292a7,7,0,0,0-.54-1.23c-.37-.78-.95-1.9-1.7-3.25a97.9,97.9,0,0,0-6.54-10.19,96.79,96.79,0,0,0-7.76-9.29c-1.07-1.12-2-2-2.59-2.6a8.57,8.57,0,0,0-1-.89,7.87,7.87,0,0,0,.89,1c.59.62,1.44,1.54,2.48,2.69,2.07,2.29,4.84,5.54,7.63,9.34a120.22,120.22,0,0,1,6.62,10.08c.78,1.33,1.4,2.41,1.82,3.17A10.35,10.35,0,0,0,392.32,292Z" style="fill:#e0e0e0"></path><path d="M358.23,277.5A34.94,34.94,0,0,1,358.8,299c-5.42-4.27-11.62-11.5-13.67-18.08a34.67,34.67,0,0,1,0-20.37A34.87,34.87,0,0,1,358.23,277.5Z" style="fill:#ebebeb"></path><path d="M355.61,288.65a5.78,5.78,0,0,0-.17-1.16c-.13-.75-.37-1.82-.68-3.13a84.58,84.58,0,0,0-3.16-10.1,83.63,83.63,0,0,0-4.39-9.62c-.64-1.2-1.18-2.15-1.58-2.79a5.93,5.93,0,0,0-.65-1,6.56,6.56,0,0,0,.52,1.06c.35.67.86,1.64,1.46,2.84a103.5,103.5,0,0,1,4.27,9.64c1.47,3.85,2.56,7.42,3.26,10,.35,1.31.62,2.37.8,3.1A7.41,7.41,0,0,0,355.61,288.65Z" style="fill:#e0e0e0"></path><path d="M373.82,256.48a34.92,34.92,0,0,0,13.54-16.65c-6.9.08-16.22,2-21.86,6A34.62,34.62,0,0,0,353.07,262,34.89,34.89,0,0,0,373.82,256.48Z" style="fill:#ebebeb"></path><path d="M378.55,246.05a5.93,5.93,0,0,1-.85.81c-.56.51-1.39,1.22-2.45,2.07a85.05,85.05,0,0,1-18,11c-1.23.55-2.24,1-2.95,1.24a6.94,6.94,0,0,1-1.11.39,6.28,6.28,0,0,1,1.05-.53c.69-.31,1.68-.77,2.89-1.35,2.44-1.17,5.75-2.88,9.27-5a105.16,105.16,0,0,0,8.69-6c1.07-.82,1.93-1.49,2.52-2A7.09,7.09,0,0,1,378.55,246.05Z" style="fill:#e0e0e0"></path><path d="M404.45,255.39A34.15,34.15,0,0,0,413,236.24c-6.49,1.82-14.8,6-19.11,11.19a33.84,33.84,0,0,0-7.64,18.38A34.09,34.09,0,0,0,404.45,255.39Z" style="fill:#ebebeb"></path><path d="M406.27,244.34a5.5,5.5,0,0,1-.59,1c-.4.62-1,1.5-1.79,2.56a82.21,82.21,0,0,1-6.63,7.93,84.28,84.28,0,0,1-7.57,7c-1,.83-1.88,1.49-2.48,1.92a5.93,5.93,0,0,1-.95.65,6.67,6.67,0,0,1,.86-.77c.57-.46,1.39-1.15,2.39-2,2-1.72,4.7-4.18,7.47-7.09a102.16,102.16,0,0,0,6.69-7.83c.81-1,1.45-1.9,1.89-2.49A8.08,8.08,0,0,1,406.27,244.34Z" style="fill:#e0e0e0"></path><path d="M287.1,239.5a1.15,1.15,0,0,1,.31.12l.88.42,3.37,1.65,2.43,1.2,2.93,1.34c2.11,1,4.49,2.09,7.19,3.17l4.22,1.75c1.47.59,3,1.15,4.63,1.76,3.18,1.25,6.67,2.37,10.31,3.6a245.94,245.94,0,0,0,24.2,6.34,228.75,228.75,0,0,0,24.77,3.52c3.84.24,7.49.55,10.91.56,1.71,0,3.36.11,4.95.1l4.57-.08c2.91,0,5.53-.22,7.84-.35l3.22-.2,2.69-.28,3.73-.36,1-.09h.33a1.12,1.12,0,0,1-.33.07l-1,.13-3.73.47-2.69.33-3.22.24c-2.31.16-4.94.41-7.85.43l-4.58.12c-1.59,0-3.25-.05-5-.07-3.43,0-7.09-.29-10.94-.51a224.94,224.94,0,0,1-24.84-3.49A236.93,236.93,0,0,1,323.22,255c-3.65-1.25-7.13-2.39-10.32-3.66-1.6-.62-3.15-1.19-4.62-1.79l-4.22-1.79c-2.7-1.1-5.06-2.27-7.16-3.25L294,243.12l-2.41-1.24-3.33-1.74-.85-.47Z" style="fill:#e0e0e0"></path><path d="M430.09,265.1a24.58,24.58,0,0,1-5.88-24.6c.56-1.68,1.63-3.54,3.4-3.64s3.16,1.83,3.85,3.58a28.88,28.88,0,0,1-.88,23,33,33,0,0,1,11.31-15.53c2-1.49,4.74-2.76,6.8-1.38s2,4.26,1.28,6.54a19.44,19.44,0,0,1-18.73,13.48,18.28,18.28,0,0,1,18.45,9.73c1.27,2.56,1.58,6.27-.89,7.71-1.5.87-3.4.48-5-.12A23.28,23.28,0,0,1,430.05,270a20.45,20.45,0,0,1-2.6,22.31c-1.66,1.92-4.1,3.62-6.57,3-3.13-.73-4.36-4.55-4.43-7.77a26.76,26.76,0,0,1,9.7-21,15.24,15.24,0,0,1-14,1.94c-3-1.12-6-4.23-4.8-7.25s5-3.33,8.08-2.92A37.93,37.93,0,0,1,431,264.1" style="fill:#ebebeb"></path><path d="M427.66,247.71c-.25.1,1.5,4.15,2.06,9.47s-.23,9.66,0,9.7,1.43-4.3.81-9.79S427.83,247.6,427.66,247.71Z" style="fill:#e0e0e0"></path><path d="M440.36,254c-.24-.1-1.44,3.34-4.48,6.47s-6.17,4.93-6,5.17,3.48-1.3,6.63-4.58S440.58,254,440.36,254Z" style="fill:#e0e0e0"></path><path d="M440.87,275.62c.19-.06-1.06-3.44-4.23-6.47s-6.77-3.89-6.78-3.67,3.2,1.37,6.19,4.29S440.63,275.75,440.87,275.62Z" style="fill:#e0e0e0"></path><path d="M430.18,269.25a3,3,0,0,0,2.23-5.06,8.27,8.27,0,0,1-2.35,1.46,12.16,12.16,0,0,1,.12,3.6" style="fill:#fafafa"></path><path d="M422.35,287.2a10.38,10.38,0,0,0,2.21-2.69,31,31,0,0,0,5.05-15.85,10.55,10.55,0,0,0-.25-3.47c-.28,0,0,5.33-2,11.48S422.11,287,422.35,287.2Z" style="fill:#e0e0e0"></path><path d="M244.23,52.55A20.89,20.89,0,0,1,224,60c-1.47-.3-3.15-1-3.41-2.49s1.23-2.86,2.63-3.62a24.56,24.56,0,0,1,19.48-1.58,28.18,28.18,0,0,1-14.26-8c-1.45-1.52-2.8-3.73-1.85-5.61S230,36.64,232,37A16.53,16.53,0,0,1,245.3,51.44a15.57,15.57,0,0,1,6.35-16.57c2-1.33,5.14-2,6.6,0,.89,1.18.76,2.83.42,4.26a19.84,19.84,0,0,1-10.3,13,17.41,17.41,0,0,1,19.1-.06c1.79,1.21,3.47,3.1,3.22,5.25-.3,2.71-3.4,4.13-6.11,4.52a22.78,22.78,0,0,1-18.74-6.06,12.94,12.94,0,0,1,3.07,11.65c-.65,2.68-3,5.48-5.64,4.79S240,68.29,240,65.65a32.17,32.17,0,0,1,3.31-13.79" style="fill:#ebebeb"></path><path d="M229.79,56.37c.11.2,3.35-1.69,7.79-2.7s8.18-.79,8.19-1-3.78-.78-8.35.31S229.68,56.23,229.79,56.37Z" style="fill:#e0e0e0"></path><path d="M233.79,45c-.06.22,3,.88,5.92,3.13s4.78,4.72,5,4.56-1.45-2.81-4.53-5.14S233.78,44.82,233.79,45Z" style="fill:#e0e0e0"></path><path d="M252,42.39c-.06-.16-2.8,1.24-5,4.22s-2.6,6.11-2.41,6.1.82-2.84,3-5.67S252.16,42.58,252,42.39Z" style="fill:#e0e0e0"></path><path d="M247.73,52.06a2.56,2.56,0,0,0-4.5-1.38,7.49,7.49,0,0,1,1.47,1.84,10,10,0,0,1,3-.46" style="fill:#fafafa"></path><path d="M263.67,56.86a8.43,8.43,0,0,0-2.49-1.6,26.32,26.32,0,0,0-13.89-2.66,9,9,0,0,0-2.91.56c0,.24,4.5-.53,9.9.54S263.57,57.07,263.67,56.86Z" style="fill:#e0e0e0"></path></g><g id="freepik--Table--inject-12"><path d="M463.47,480.45c0,.15-95.58.26-213.46.26s-213.48-.11-213.48-.26,95.56-.26,213.48-.26S463.47,480.31,463.47,480.45Z" style="fill:#263238"></path></g><g id="freepik--Character--inject-12"><path d="M167.79,89a13.85,13.85,0,0,0-11.74,10.17,10.21,10.21,0,0,1-1.3,3.8c-1.06,1.38-2.9,1.81-4.48,2.53a11.61,11.61,0,0,0-6.5,11.5c-3.32.93-6.84,2-9.15,4.53s-2.7,7.17.13,9.15c-5.13,3.7-5.4,12.43-.5,16.44a17.25,17.25,0,0,0-9,17.12c-3.17,1-6.58,2.11-8.47,4.83s-1,7.45,2.2,8.08a8.3,8.3,0,0,0,2.18,10.66c-3.78,1.91-4.55,7.9-1.37,10.71s9,1.28,10.45-2.71a11.86,11.86,0,0,0,7.65,8.39,13.43,13.43,0,0,0,2.35,14.92,6.64,6.64,0,1,0,4.58,12.47c.57,3.22,1.47,6.52,3.61,9s5.82,3.88,8.79,2.53c-2,5.14-1.94,11.5,1.64,15.73a22.73,22.73,0,0,0,3.57,3.21l7.86,6.16c2.51,2,6.43,3.83,8.46,1.38,3.78,6,13.41,7.13,18.46,2.14,2.91,6.49,11.76,7.05,18.86,6.63,2.25-.14,4.62-.32,6.49-1.58,2.92-2,3.67-5.87,5.5-8.88,1-1.65,2.35-3.07,3.27-4.77a11,11,0,0,0-3-13.53c4.08-5.9,3.08-13.8,1.91-20.88-1-6.08-2.09-12.38-5.57-17.47a4.3,4.3,0,0,1-1.06-2.42c0-1.2,1.1-2.06,2-2.86a15.8,15.8,0,0,0,4.25-16.48c-.58-1.68-1.46-3.38-1.18-5.14a9.19,9.19,0,0,1,2.1-3.79c4.27-5.68,6.28-14.72.82-19.29a21.06,21.06,0,0,0,4.57-25.74c7.14-4.54,9.35-15.31,4.57-22.29,2.78-3.55,5.66-7.37,6.13-11.85s-2.61-9.65-7.12-9.64c2-2.09,1.65-5.61,0-8s-4.2-3.9-6.7-5.34c-3.75-2.16-7.68-4.38-12-4.63s-9.13,2.11-10.15,6.32c-.49-2.29-3.14-3.58-5.47-3.36s-4.39,1.54-6.35,2.83c-3.34-4.94-12.24-4.08-14.57,1.41-4.51-4.11-13.11-1.37-14.42,4.59" style="fill:#263238"></path><path d="M374.21,131.52c-1.74-4.23-6.51-6.55-11.08-6.87,2.71-3.36,1.3-8.84-2.21-11.34s-8.38-2.42-12.39-.84c1.47-5.06-.86-10.76-5-14s-9.7-4.37-14.94-3.78a12.79,12.79,0,0,0-15-17.1c-1-3.58-4.7-5.86-8.38-6.36s-7.39.43-11,1.35a16.71,16.71,0,0,0-29.87-4.27c-9-4.23-26.87.53-26.87,13.32L277.61,260.1c4,3.23,12.56,8.14,28.53,8.13,5.13,0,17.28-9.3,16.45-14.37,7.9-.64,14.47-8.47,13.74-16.36,4.95,1.75,9.17-3.85,11.46-8.57,1.18-2.45-.57.84.74-1.54,3.86-7,1.23-14.37-.62-16.21,3,.58,8.64,1.43,11.75-4,1.29-2.26.1-8.13.1-8.13.61-2.73,1.71-4.11,2.25-6.86s-.06-6.06-2.49-7.46c4-.55,9.05-2.17,9.21-6.2.07-1.79-1-3.48-1-5.27a21.05,21.05,0,0,1,.82-3.89c1.24-6.23-4.41-11.49-9.47-15.32,2.71-1.07,5.51-2.19,7.57-4.26s3.19-5.37,1.89-8C373.16,141.63,376,135.76,374.21,131.52Z" style="fill:#263238"></path><path d="M286.63,266.5c-.81-10.3-1.92-23.21-1.92-23.16s23.81-4.06,28.62-35.17c2.39-15.47,1.5-40.82.11-61.53-1.25-18.65-18.64-43.11-41.68-41.83l-10.31-.59-38.26,17.9a11,11,0,0,0-9.74,11.13l7.42,139.16,26.68,36.46,39.58-26.64Z" style="fill:#ae7461"></path><path d="M266.83,203.71a6.52,6.52,0,0,1,2-4.17,6.7,6.7,0,0,1,8.08-.94,9,9,0,0,1,3.9,8.2h0a8.14,8.14,0,0,1-5.63,3.72,9.81,9.81,0,0,1-1.09.1,7.3,7.3,0,0,1-5-1.66A6.49,6.49,0,0,1,266.83,203.71Z" style="fill:#6f4439"></path><path d="M301.09,172a4,4,0,0,1-3.83,4,3.82,3.82,0,0,1-4.13-3.57,4,4,0,0,1,3.83-4A3.81,3.81,0,0,1,301.09,172Z" style="fill:#263238"></path><path d="M306.1,157.41c-.49.53-3.52-1.7-7.81-1.67s-7.43,2.19-7.89,1.67c-.23-.23.27-1.17,1.63-2.18a11,11,0,0,1,6.32-2,10.44,10.44,0,0,1,6.22,2C305.89,156.24,306.35,157.18,306.1,157.41Z" style="fill:#263238"></path><path d="M281.53,192.58c0-.24,2.65-.72,7-1.29,1.09-.12,2.13-.34,2.31-1.09s-.21-2-.75-3.24l-3.27-8.33c-4.55-11.86-7.85-21.61-7.37-21.79s4.56,9.29,9.11,21.15c1.09,2.92,2.14,5.71,3.13,8.38.42,1.24,1.14,2.65.59,4.29a2.74,2.74,0,0,1-1.79,1.61,7.18,7.18,0,0,1-1.86.27C284.25,192.79,281.55,192.82,281.53,192.58Z" style="fill:#263238"></path><path d="M284.71,243.34A79,79,0,0,1,243,232.41s11.18,21.5,42.29,18.46Z" style="fill:#6f4439"></path><path d="M268.92,195.6c.7,0,.73,4.61,4.73,7.9s9,2.76,9,3.41c.07.29-1.1.91-3.2,1a11.52,11.52,0,0,1-7.5-2.58,10.1,10.1,0,0,1-3.67-6.62C268.09,196.73,268.6,195.58,268.92,195.6Z" style="fill:#263238"></path><path d="M306.13,147.88c-.72,1.05-4,.36-7.84.7s-7,1.36-7.86.42c-.38-.46,0-1.48,1.36-2.54a12.19,12.19,0,0,1,12.65-.91C305.9,146.42,306.44,147.37,306.13,147.88Z" style="fill:#263238"></path><path d="M253.88,172.76a4,4,0,0,0,4,3.86,3.81,3.81,0,0,0,4-3.76,4,4,0,0,0-4-3.86A3.82,3.82,0,0,0,253.88,172.76Z" style="fill:#263238"></path><path d="M249.06,159.18c.51.5,3.44-1.86,7.73-2s7.51,1.85,8,1.31c.22-.25-.33-1.16-1.74-2.1a10.94,10.94,0,0,0-6.4-1.69,10.52,10.52,0,0,0-6.12,2.27C249.21,158,248.81,159,249.06,159.18Z" style="fill:#263238"></path><path d="M250.82,145.33c.88.94,4.15-.21,8.12-.42s7.38.34,8.11-.71c.32-.51-.25-1.46-1.76-2.32a12.26,12.26,0,0,0-6.68-1.32,12.06,12.06,0,0,0-6.4,2.23C250.85,143.85,250.43,144.87,250.82,145.33Z" style="fill:#263238"></path><path d="M221.86,185c0-2.31-2.72-7.76-5-8.11-6.11-.92-17.11-.39-17.15,15.12,0,21.2,21.25,16.87,21.28,16.27S221.91,193,221.86,185Z" style="fill:#ae7461"></path><path d="M215.15,200.53c-.09-.07-.37.26-1,.54a3.66,3.66,0,0,1-2.76.05c-2.24-.83-4.11-4.39-4.21-8.21a12.13,12.13,0,0,1,1.05-5.28c.65-1.55,1.65-2.63,2.78-2.83a1.88,1.88,0,0,1,2.18,1c.28.59.14,1,.26,1.05s.45-.35.28-1.23a2.31,2.31,0,0,0-.83-1.33,2.76,2.76,0,0,0-2-.54c-1.63.11-3.11,1.61-3.86,3.27a12.57,12.57,0,0,0-1.3,5.91c.13,4.27,2.31,8.27,5.37,9.17a4,4,0,0,0,3.38-.56C215.12,201,215.23,200.57,215.15,200.53Z" style="fill:#6f4439"></path><path d="M203.62,199.79a10.14,10.14,0,0,0-2.83,1.69,13,13,0,0,0-4.51,7.69,13.64,13.64,0,0,0,.24,6.25,15.36,15.36,0,0,0,3.58,6.23,15.61,15.61,0,0,0,6.7,4.26,14.31,14.31,0,0,0,8.5.06,15.48,15.48,0,0,0,7.21-4.54,14,14,0,0,0,3.36-7.18,14.82,14.82,0,0,0-3.93-12.49,13.2,13.2,0,0,0-4.38-2.74,13.6,13.6,0,0,0-3.78-.93,8.27,8.27,0,0,0-2.45.13,2.84,2.84,0,0,0-.82.27,10.48,10.48,0,0,1,3.24-.11,13.48,13.48,0,0,1,3.65,1,13.19,13.19,0,0,1,4.17,2.72,14.4,14.4,0,0,1,3.64,12A13.42,13.42,0,0,1,222,221a14.9,14.9,0,0,1-6.87,4.31,13.76,13.76,0,0,1-8.09,0,15.19,15.19,0,0,1-6.42-4,15,15,0,0,1-3.49-5.93,13.3,13.3,0,0,1-.31-6A12.89,12.89,0,0,1,201,201.7,32.52,32.52,0,0,1,203.62,199.79Z" style="fill:#e0e0e0"></path><path d="M254.7,111.57a111.54,111.54,0,0,0-42,8.23c-4,1.62-8.05,3.66-10.27,7.32-1.94,3.21-2.13,7.18-2,10.93.31,11.78,5.27,26.12,9.93,36.94l14.84,8.58c11.28-2.85,5.78-22.32,5.09-32.12a23.13,23.13,0,0,0,13.21-20.63A25.62,25.62,0,0,0,254.7,111.57Z" style="fill:#263238"></path><path d="M250.52,106a12.88,12.88,0,0,0-12.26,19.41,11,11,0,0,0-.79,21.62,8.88,8.88,0,0,0-5.15,7.83,11,11,0,0,0,4.09,8.64,9,9,0,0,0,6.41,2.27,5.89,5.89,0,0,0,5.19-4c.61-2.24-.82-5-3.11-5.37,3.16-.81,5-4.4,4.79-7.66s-1.82-6.23-3.5-9c3.45-1.94,3.91-7.56.82-10a12.92,12.92,0,0,0,10.63-9.26c.31-1.17-.53-3-1.49-2.3a6.79,6.79,0,0,0,4.09-8.78" style="fill:#263238"></path><path d="M324.29,153.72c1.61-8.8-2.79-15.65-9.26-21.83,5.1-8.67,2.46-21-5.74-26.87a10.14,10.14,0,0,0-14.51-11.31c-2.84-3.59-5.89-7.35-10.19-8.95s-10.12,0-11.44,4.39c-4.17-6.68-14.91-7.84-20.41-2.21-5.69-2.74-13.39,2.72-12.69,9l7.32,10a10.33,10.33,0,0,0,4.74,18.93A13.75,13.75,0,0,0,255.35,139c1.7,1.66,5.29,2.34,5.84,0,1.69,2.16,5.57.3,6.11-2.39s-1-5.33-2.46-7.65a5.53,5.53,0,0,0,4.26-10.19l6.73.47c-.47,3.36.17,7,2.47,9.52s6.49,3.32,9.18,1.27c-1.72,6.51,4.4,13.78,11.12,13.2,0,0,3.42,1.28,5.09-2.74s0-9,0-9,1.43,11.69,6.4,12.94c1.85.47,3,2.8,3.73,5.56a6.73,6.73,0,0,0,10.47,3.74Z" style="fill:#263238"></path><path d="M229.41,177.69c4-2,4.94-8.25,1.67-11.3,3-3.45,1.55-9.72-2.68-11.48a12.57,12.57,0,0,0,.89-13,10.9,10.9,0,0,0-11.7-5.3c-4.47,1.09-7.84,5.8-7.14,10.34l2,20.66a3.51,3.51,0,0,0,4.39,5.44,10,10,0,0,0-1.73,9.29,4.33,4.33,0,0,0,1.94,2.62A2.39,2.39,0,0,0,219,185a5.14,5.14,0,0,0,.77,7,5.08,5.08,0,0,0,7.5-2.46,3.42,3.42,0,0,0,4.51-.53,6.83,6.83,0,0,0,1.55-4.64C233.41,181.56,232.15,178.28,229.41,177.69Z" style="fill:#263238"></path><path d="M316.82,163.49s.56.12,1.63.11a8.55,8.55,0,0,0,4.42-1.38,8.44,8.44,0,0,0,2.44-2.32,7.34,7.34,0,0,0,1.29-3.75,8.51,8.51,0,0,0-1-4.48,8.1,8.1,0,0,0-3.66-3.56l-.26-.12.23-.18c2.69-2.05,3.87-6.25,2.55-10a7.85,7.85,0,0,0-3.85-4.52,5.46,5.46,0,0,0-3.05-.6,3.49,3.49,0,0,0-1.47.51,3.37,3.37,0,0,0-1.06,1.16,2.39,2.39,0,0,0,.25,2.92,3.09,3.09,0,0,0,3.09.46,3.65,3.65,0,0,0,2.27-2.38,7.93,7.93,0,0,0,.29-3.54,12.78,12.78,0,0,0-2.89-6.77,7.89,7.89,0,0,0-3-2.29,4.7,4.7,0,0,0-3.66,0l-.67.29.34-.65a13.7,13.7,0,0,0,.69-11.54,9.08,9.08,0,0,0-6.45-5.35,8.1,8.1,0,0,0-7.78,2l-.4-.31a5.06,5.06,0,0,0,0-5.19,6.88,6.88,0,0,0-4-3.37,10.27,10.27,0,0,0-5.22-.13,19.48,19.48,0,0,0-4.83,1.75l-.38.19,0-.43a8.92,8.92,0,0,0-2.06-6.48,8.41,8.41,0,0,0-5.59-3.11,9,9,0,0,0-5.81,1.47,8.76,8.76,0,0,0-3.47,4.31l-.1.29-.21-.22a14,14,0,0,0-9-4.36A15.88,15.88,0,0,0,249,93a14.38,14.38,0,0,0-4.1,2.54c-.4.37-.68.69-.88.89l-.31.3a16.42,16.42,0,0,1,1.13-1.27A13.69,13.69,0,0,1,249,92.79a15.9,15.9,0,0,1,7.64-1.14,14.65,14.65,0,0,1,4.72,1.22,13.28,13.28,0,0,1,4.48,3.18l-.3.06a9.16,9.16,0,0,1,3.59-4.52A9.41,9.41,0,0,1,275.16,90c4.47.38,8.54,4.94,8.07,10.07l-.34-.24A21,21,0,0,1,287.83,98a10.77,10.77,0,0,1,5.46.14,7.31,7.31,0,0,1,4.3,3.61,6.52,6.52,0,0,1,.8,2.82,4.92,4.92,0,0,1-.79,2.88l-.4-.31a8.56,8.56,0,0,1,8.26-2.18,9.93,9.93,0,0,1,4.08,2,10.06,10.06,0,0,1,2.74,3.67,14.23,14.23,0,0,1-.71,12l-.33-.35a5.18,5.18,0,0,1,4.05,0,8.39,8.39,0,0,1,3.16,2.44,13.34,13.34,0,0,1,3,7,8.31,8.31,0,0,1-.32,3.77,4.88,4.88,0,0,1-1,1.64,3.88,3.88,0,0,1-1.61,1,3.51,3.51,0,0,1-3.57-.58,2.57,2.57,0,0,1-.76-1.7,3.21,3.21,0,0,1,.44-1.78,3.89,3.89,0,0,1,1.21-1.31,4.07,4.07,0,0,1,1.67-.58,5.86,5.86,0,0,1,3.29.65,8.28,8.28,0,0,1,4.05,4.79c1.36,3.91.11,8.27-2.73,10.41l0-.3a8.42,8.42,0,0,1,3.79,3.74,8.77,8.77,0,0,1,1,4.63A7.63,7.63,0,0,1,325.5,160a8.79,8.79,0,0,1-7.05,3.66A6.24,6.24,0,0,1,316.82,163.49Z" style="fill:#455a64"></path><path d="M184.54,205.08a6.29,6.29,0,0,1-1.63-.35,9,9,0,0,1-4-2.69,9.16,9.16,0,0,1-1.79-3,8.22,8.22,0,0,1-.34-4.2,9.45,9.45,0,0,1,2.1-4.39,9,9,0,0,1,4.63-2.95l.11.31a4,4,0,0,1-3.11.1,5.75,5.75,0,0,1-2.65-1.94c-1.42-1.85-1.55-4.42-1.13-6.79a25.39,25.39,0,0,1,.9-3.61,12.23,12.23,0,0,1,1.69-3.49,6.57,6.57,0,0,1,3.19-2.45,4.81,4.81,0,0,1,4.13.32l.24.15-.21.2a7,7,0,0,1-7.22,1.13,6.8,6.8,0,0,1-3.12-2.42,8.07,8.07,0,0,1-1.39-3.78,8.94,8.94,0,0,1,2.88-7.55,11.43,11.43,0,0,1,7.93-2.87h.36l-.13.34a2.11,2.11,0,0,1-1.17,1.16,2.9,2.9,0,0,1-1.62.14,3.93,3.93,0,0,1-2.64-1.72,4.5,4.5,0,0,1-.39-3.17,10.3,10.3,0,0,1,1.18-2.94c.52-.92,1.1-1.79,1.69-2.67a19.49,19.49,0,0,1,1.95-2.54,8,8,0,0,1,5.76-2.85,5,5,0,0,1,2.54.65l.75.43-.86.06a8.59,8.59,0,0,1-7.37-3.72,7.7,7.7,0,0,1-1.4-3.94,8.17,8.17,0,0,1,.85-4,8.36,8.36,0,0,1,6.35-4.66,6.25,6.25,0,0,1,3.87.94,4.51,4.51,0,0,1,1.42,1.43,3.36,3.36,0,0,1,.46,2l0,.16-.15.05a3.41,3.41,0,0,1-2.62-.25,5,5,0,0,1-1.88-1.77,5.58,5.58,0,0,1-.63-4.87,9.11,9.11,0,0,1,2.87-3.86,23.78,23.78,0,0,1,3.92-2.5l-.12.24a11.91,11.91,0,0,1,1.58-8.11,11.3,11.3,0,0,1,5.92-4.94,12,12,0,0,1,7.15-.18,11.74,11.74,0,0,1,5.56,3.43l-.3.1a11.45,11.45,0,0,1,1.73-5.7,11.8,11.8,0,0,1,3.71-3.76,10.56,10.56,0,0,1,4.3-1.54,11.63,11.63,0,0,1,3.82.15A11.41,11.41,0,0,1,237,98.45a8.1,8.1,0,0,1,1.31,1.24l-.34-.31a11.35,11.35,0,0,0-1-.86,11.6,11.6,0,0,0-4.72-2,11.29,11.29,0,0,0-3.75-.11,10.29,10.29,0,0,0-4.18,1.55,11.46,11.46,0,0,0-3.6,3.69,11.15,11.15,0,0,0-1.65,5.55v.43l-.29-.32a11.38,11.38,0,0,0-5.4-3.3,11.6,11.6,0,0,0-6.91.21,11,11,0,0,0-5.7,4.78,11.49,11.49,0,0,0-1.49,7.81l0,.17-.15.07a22.46,22.46,0,0,0-3.83,2.46,8.59,8.59,0,0,0-2.72,3.66,5.09,5.09,0,0,0,.59,4.45,4.45,4.45,0,0,0,1.69,1.59,2.94,2.94,0,0,0,2.25.22l-.17.22a3.23,3.23,0,0,0-1.67-3,5.79,5.79,0,0,0-3.55-.86,7.84,7.84,0,0,0-5.93,4.39,7.64,7.64,0,0,0-.79,3.79,7.19,7.19,0,0,0,1.31,3.68,8.07,8.07,0,0,0,6.9,3.49l-.11.48a4.6,4.6,0,0,0-2.28-.58,6.4,6.4,0,0,0-3,.77,8.81,8.81,0,0,0-2.42,1.92,32.65,32.65,0,0,0-3.57,5.1,9.58,9.58,0,0,0-1.13,2.79,4,4,0,0,0,.32,2.8,3.48,3.48,0,0,0,2.3,1.49,1.91,1.91,0,0,0,2.23-1l.22.35a10.87,10.87,0,0,0-7.58,2.73,8.45,8.45,0,0,0-2.73,7.13,7.6,7.6,0,0,0,1.3,3.56,6.38,6.38,0,0,0,2.9,2.26,6.49,6.49,0,0,0,6.75-1l0,.35a4.4,4.4,0,0,0-3.75-.28,6.15,6.15,0,0,0-3,2.29,12.13,12.13,0,0,0-1.65,3.37,27.43,27.43,0,0,0-.9,3.54c-.42,2.32-.28,4.79,1,6.51s3.58,2.62,5.34,1.76l.11.31a8.84,8.84,0,0,0-4.49,2.81,9.14,9.14,0,0,0-2.06,4.26,8,8,0,0,0,.28,4.08,9.44,9.44,0,0,0,5.59,5.72C184,205,184.55,205,184.54,205.08Z" style="fill:#455a64"></path><path d="M149.77,194.42s-.16.06-.47.14a2.8,2.8,0,0,1-.61.11,3.75,3.75,0,0,1-.85,0,7.26,7.26,0,0,1-5-2.43,8.57,8.57,0,0,1-2-3.54,10.83,10.83,0,0,1-.16-4.87,17.63,17.63,0,0,1,2-5.27A21.7,21.7,0,0,1,144.3,176a4.07,4.07,0,0,1,2.76-1.78l0,.36a4.37,4.37,0,0,1-3.16-.86,6.21,6.21,0,0,1-2.11-2.72c-.9-2.26-.38-4.86.58-7.16a18.6,18.6,0,0,1,4.28-6.51,10.26,10.26,0,0,1,3.48-2.22,5.6,5.6,0,0,1,4.25.18l-.22.42a6,6,0,0,1-2.77-4.12,12.85,12.85,0,0,1,.09-5.13,18.45,18.45,0,0,1,1.77-4.95,8.56,8.56,0,0,1,3.84-3.8,6.14,6.14,0,0,1,5.49.2,4.06,4.06,0,0,1,1.82,2.24,2.46,2.46,0,0,1,0,1.52,2,2,0,0,1-1,1.18,2.93,2.93,0,0,1-2.94-.24,4.6,4.6,0,0,1-1.62-2.47,11.78,11.78,0,0,1-.08-5.81c1.27-5.53,6-10.07,11.48-10.68l0,.5a4.64,4.64,0,0,1-2.84-2.11,6.81,6.81,0,0,1-.95-3.35,7.75,7.75,0,0,1,2.57-6.14,13.26,13.26,0,0,1,5.88-2.78,40.83,40.83,0,0,1,6.22-.78l-.19.35a9.24,9.24,0,0,1-.22-8.3,10.62,10.62,0,0,1,5.54-5.57,13.68,13.68,0,0,1,7.31-.88,17.6,17.6,0,0,1,6.4,2.25l-.22,0a20.5,20.5,0,0,1,10.46-5.32,21.91,21.91,0,0,1,8.86.15,20.53,20.53,0,0,1,5.23,2c.55.32.95.61,1.22.78a4.3,4.3,0,0,1,.41.29l-.43-.24c-.29-.16-.69-.44-1.25-.74A21.11,21.11,0,0,0,219,91.91a21.82,21.82,0,0,0-8.77-.07A20.28,20.28,0,0,0,200,97.13l-.1.1-.12-.07A17.3,17.3,0,0,0,193.5,95a13.23,13.23,0,0,0-7.09.88,10.21,10.21,0,0,0-5.3,5.36,8.76,8.76,0,0,0,.22,7.88l.19.33-.38,0a39.24,39.24,0,0,0-6.14.79,12.63,12.63,0,0,0-5.66,2.68,7.2,7.2,0,0,0-2.39,5.74,6.36,6.36,0,0,0,.88,3.1,4.1,4.1,0,0,0,2.52,1.88l1.45.35-1.48.16c-5.22.57-9.81,5-11,10.29a11.41,11.41,0,0,0,.07,5.54,4.17,4.17,0,0,0,1.43,2.2,2.45,2.45,0,0,0,2.41.2,1.67,1.67,0,0,0,.74-2.09,3.54,3.54,0,0,0-1.6-1.95,5.65,5.65,0,0,0-5-.18,8.14,8.14,0,0,0-3.6,3.58,18.35,18.35,0,0,0-1.73,4.81,12.43,12.43,0,0,0-.1,4.93,5.54,5.54,0,0,0,2.54,3.81l-.22.42a5.17,5.17,0,0,0-3.9-.18,9.91,9.91,0,0,0-3.32,2.12,18.11,18.11,0,0,0-4.2,6.34c-.95,2.25-1.44,4.75-.6,6.85s2.82,3.66,4.85,3.37l0,.36a3.74,3.74,0,0,0-2.51,1.63,20.75,20.75,0,0,0-1.65,2.54,17.69,17.69,0,0,0-2,5.16,10.67,10.67,0,0,0,.11,4.76,8.42,8.42,0,0,0,1.95,3.47,7.24,7.24,0,0,0,4.84,2.46A7.66,7.66,0,0,0,149.77,194.42Z" style="fill:#455a64"></path><path d="M222,178a3.6,3.6,0,0,1-1.25.58,5.72,5.72,0,0,1-3.9-.4,6.63,6.63,0,0,1-2.28-1.71,6.52,6.52,0,0,1-1.47-3,10.08,10.08,0,0,1,1.94-7.76l.11.32a9.57,9.57,0,0,1-4.93-3.55,9.82,9.82,0,0,1-1.94-6.38c.23-4.78,5-9.21,10.36-8.83l0,.51a2.63,2.63,0,0,1-1.43-.21,3.79,3.79,0,0,1-2-2.1,6.44,6.44,0,0,1-.34-2.77A17.19,17.19,0,0,1,216,137.4a7.69,7.69,0,0,1,1.41-2.22,5.06,5.06,0,0,1,2.19-1.37,4.91,4.91,0,0,1,2.52-.12,3.4,3.4,0,0,1,2.06,1.36l.46.65-.74-.3a9.66,9.66,0,0,1-4.51-3.87,11.14,11.14,0,0,1-1.16-2.54,10.84,10.84,0,0,1-.42-2.61,8.84,8.84,0,0,1,1.16-4.62,10.12,10.12,0,0,1,8-5,6.47,6.47,0,0,1,2,.14,19.18,19.18,0,0,0-2,0,10,10,0,0,0-5.13,2,9.61,9.61,0,0,0-2.58,3,8.57,8.57,0,0,0-1.06,4.44,10.57,10.57,0,0,0,.43,2.5,10.89,10.89,0,0,0,1.13,2.43,9.28,9.28,0,0,0,4.32,3.66l-.29.35a3.59,3.59,0,0,0-4-1,5.42,5.42,0,0,0-3.28,3.32,17.09,17.09,0,0,0-1.08,5,6.09,6.09,0,0,0,.32,2.55,3.33,3.33,0,0,0,1.68,1.82,2.24,2.24,0,0,0,1.15.17l0,.52c-5.05-.38-9.62,3.85-9.83,8.35a9.42,9.42,0,0,0,1.82,6.07,9.18,9.18,0,0,0,4.68,3.42l.28.09-.17.24a9.76,9.76,0,0,0-2,7.44,6.32,6.32,0,0,0,3.52,4.61,5.72,5.72,0,0,0,3.77.49A9.71,9.71,0,0,0,222,178Z" style="fill:#455a64"></path><path d="M271.71,117.37a5.68,5.68,0,0,0-1-2,8.62,8.62,0,0,0-5.4-2.49,16.86,16.86,0,0,0-4.2,0,8.85,8.85,0,0,0-4.39,1.73,5.72,5.72,0,0,0-2.28,4.45,3.58,3.58,0,0,0,1,2.42,2.6,2.6,0,0,0,2.48.65,3.66,3.66,0,0,0,2.21-1.53,6.25,6.25,0,0,0,1-2.54,8.57,8.57,0,0,0-.74-5.13,8.85,8.85,0,0,0-3.06-3.58,8,8,0,0,0-3.9-1.33,9.29,9.29,0,0,0-5.78,1.49,16.36,16.36,0,0,0-1.74,1.43,6.37,6.37,0,0,1,1.62-1.6,9.28,9.28,0,0,1,5.92-1.68,8.29,8.29,0,0,1,4.12,1.32,9.28,9.28,0,0,1,3.25,3.75,9,9,0,0,1,.81,5.41,6.64,6.64,0,0,1-1.06,2.76,4.23,4.23,0,0,1-2.53,1.74,3.13,3.13,0,0,1-3-.8,4.1,4.1,0,0,1-1.13-2.76,6.15,6.15,0,0,1,2.49-4.84,9.31,9.31,0,0,1,4.63-1.79,16.63,16.63,0,0,1,4.31.06,8.62,8.62,0,0,1,5.51,2.72,4.58,4.58,0,0,1,.79,1.51A2.14,2.14,0,0,1,271.71,117.37Z" style="fill:#455a64"></path><path d="M335.05,117.41s.05-.54,0-1.56a10.88,10.88,0,0,0-1.18-4.26,10.11,10.11,0,0,0-5-4.72,10.58,10.58,0,0,0-8.94.31l-.3.16,0-.34c.23-3.14.57-6.63-.27-10.19a12.56,12.56,0,0,0-2.43-5,8.35,8.35,0,0,0-4.86-3.08,5,5,0,0,0-2.92.3,3.26,3.26,0,0,0-1.79,2.24,2.47,2.47,0,0,0,.1,1.45,2.09,2.09,0,0,0,1,1.05,3.14,3.14,0,0,0,2.94-.16A3,3,0,0,0,312.81,91a4.89,4.89,0,0,0-1-3c-1.39-1.75-3.75-2.49-6-2.75a20.66,20.66,0,0,0-12.59,2.57l-.54.3.17-.6a8,8,0,0,0,.29-2.28,9.49,9.49,0,0,0-.4-2.24,10.06,10.06,0,0,0-2.32-3.81,11.57,11.57,0,0,0-7.71-3.35A19.24,19.24,0,0,0,274.77,77a7.54,7.54,0,0,0-2.94,2.15,3.5,3.5,0,0,0-.75,1.52,2.32,2.32,0,0,0,.29,1.57l.75,1.31-1.06-1.08a14.66,14.66,0,0,0-8.95-4.18,16.23,16.23,0,0,0-7.52,1,15,15,0,0,0-4.19,2.42c-.42.36-.71.67-.93.86l-.32.29a2.06,2.06,0,0,1,.28-.33c.2-.2.48-.53.9-.91A14.5,14.5,0,0,1,254.51,79,16.52,16.52,0,0,1,262.14,78a14.94,14.94,0,0,1,9.2,4.22l-.31.23a2.69,2.69,0,0,1-.34-1.83,3.92,3.92,0,0,1,.81-1.71,8.08,8.08,0,0,1,3.1-2.29,19.55,19.55,0,0,1,8.07-1.29,12,12,0,0,1,8,3.46,10.62,10.62,0,0,1,2.44,4,9.9,9.9,0,0,1,.43,2.38,8.83,8.83,0,0,1-.31,2.44l-.37-.3a21.21,21.21,0,0,1,12.9-2.64,13.1,13.1,0,0,1,3.49.85,7.07,7.07,0,0,1,2.9,2.11A5.37,5.37,0,0,1,313.33,91,3.53,3.53,0,0,1,311.66,94a3.62,3.62,0,0,1-3.44.17A2.6,2.6,0,0,1,307,92.9a3.06,3.06,0,0,1-.13-1.74A3.69,3.69,0,0,1,309,88.58a5.31,5.31,0,0,1,3.21-.33,8.81,8.81,0,0,1,5.13,3.26,13,13,0,0,1,2.49,5.19c.85,3.67.48,7.19.23,10.33l-.28-.18a10.8,10.8,0,0,1,9.24-.25,10.19,10.19,0,0,1,5.05,4.89,10.43,10.43,0,0,1,1.11,4.35A7.37,7.37,0,0,1,335.05,117.41Z" style="fill:#455a64"></path><path d="M345.57,176.16a4.56,4.56,0,0,1,1,.91,7.53,7.53,0,0,1,1.63,3.44,7.28,7.28,0,0,1-1.24,5.83,7.88,7.88,0,0,1-7.2,3.09l-.51-.07.44-.26a3.59,3.59,0,0,1,2.91-.3,4.87,4.87,0,0,1,2.51,1.82,5.36,5.36,0,0,1,.9,3.13,8.6,8.6,0,0,1-.73,3.32,12.79,12.79,0,0,1-12,7.43V204a3.92,3.92,0,0,1,2.6.87,5.62,5.62,0,0,1,1.68,2.21,7.48,7.48,0,0,1-.12,5.58,27.86,27.86,0,0,1-2.65,5.11,23.83,23.83,0,0,1-3.74,4.57,12,12,0,0,1-3.86,2.47,7.47,7.47,0,0,1-4.5.29l.27-.39a16.43,16.43,0,0,1,3.09,8.64,9.9,9.9,0,0,1-.87,4.38,7.87,7.87,0,0,1-2.9,3.22,8.2,8.2,0,0,1-4,1.3,5.61,5.61,0,0,1-3.84-1.16,3.73,3.73,0,0,1-1.63-3.44,2.13,2.13,0,0,1,1.18-1.54,1.74,1.74,0,0,1,1.89.14l.07.06v.09a10.22,10.22,0,0,1-1.62,5.6,10.54,10.54,0,0,1-3.82,3.57,9.18,9.18,0,0,1-4.42,1.12,10.51,10.51,0,0,1-8.05-3.9,7.26,7.26,0,0,1-1-1.59s.3.57,1.07,1.52a10.28,10.28,0,0,0,4.25,3,9.88,9.88,0,0,0,3.7.67,8.9,8.9,0,0,0,4.26-1.12,10.27,10.27,0,0,0,3.66-3.48,9.82,9.82,0,0,0,1.53-5.39l.07.15c-.79-.66-2.25.09-2.39,1.16a3.34,3.34,0,0,0,1.48,3,5.19,5.19,0,0,0,3.55,1,7.56,7.56,0,0,0,3.73-1.24,7.15,7.15,0,0,0,2.71-3,9.27,9.27,0,0,0,.81-4.16,16,16,0,0,0-3-8.36l-.39-.57.67.17a7,7,0,0,0,4.19-.27A11.56,11.56,0,0,0,330.7,222a23.2,23.2,0,0,0,3.65-4.46,28.4,28.4,0,0,0,2.61-5,7,7,0,0,0,.14-5.21,4.21,4.21,0,0,0-3.8-2.79V204a12.38,12.38,0,0,0,11.55-7.11c.89-2,1-4.38-.1-6.05s-3.37-2.38-4.91-1.45l-.06-.33a7.57,7.57,0,0,0,6.92-2.9,7.14,7.14,0,0,0,1.28-5.63,7.77,7.77,0,0,0-1.52-3.41C345.92,176.46,345.55,176.18,345.57,176.16Z" style="fill:#455a64"></path><path d="M343.27,153.54a2.45,2.45,0,0,1,.37-.39l1.1-1.07a17,17,0,0,0,3.41-4.37,8.27,8.27,0,0,0,.89-3.66,6.29,6.29,0,0,0-1.48-4,12.19,12.19,0,0,0-3.72-3,8.14,8.14,0,0,0-4.95-1c-.29,0-.57.13-.83.2l-.13-.5a5.16,5.16,0,0,0,3.58-3.06,9,9,0,0,0,.59-4.55c-.33-3-1.08-5.68-2.46-7.46a6.28,6.28,0,0,0-4.45-2.57,6.71,6.71,0,0,0-1.93.21,1.55,1.55,0,0,1,.47-.21,4.41,4.41,0,0,1,1.47-.2,6.41,6.41,0,0,1,4.73,2.55c1.48,1.85,2.28,4.6,2.65,7.63A9.42,9.42,0,0,1,342,133a5.63,5.63,0,0,1-4,3.36l-.12-.5a7.58,7.58,0,0,1,.91-.22,8.43,8.43,0,0,1,5.26,1,12.34,12.34,0,0,1,3.87,3.17,6.71,6.71,0,0,1,1.53,4.25,8.5,8.5,0,0,1-1,3.82,16,16,0,0,1-3.6,4.36c-.5.44-.9.77-1.17,1A2,2,0,0,1,343.27,153.54Z" style="fill:#455a64"></path><path d="M108,244c6-4.53,12.18-9.19,16.27-15.52,1.69-2.61,3-5.5,5.31-7.61,2.13-2,4.92-3.11,7.19-4.93,2.93-2.34,4.83-5.69,6.66-9l5.91-10.54L159.93,204c-5,2.27-10.09,4.62-14,8.43-4.35,4.21-7.12,10.05-12.17,13.37a28.83,28.83,0,0,0-2.62,1.72,18.65,18.65,0,0,0-2.68,2.86,54.29,54.29,0,0,1-16,13" style="fill:#263238"></path><path d="M168.24,202.18a2.33,2.33,0,0,1-.19.64c-.14.4-.36,1-.69,1.76a15.48,15.48,0,0,1-1.44,2.63,8.1,8.1,0,0,1-2.94,2.71,15.81,15.81,0,0,1-4.69,1.14,8.89,8.89,0,0,0-2.48.76,5.2,5.2,0,0,0-1.93,1.86c-.51.79-.93,1.7-1.48,2.58-.28.43-.63.83-1,1.25a12.19,12.19,0,0,1-1.18,1.09,18.11,18.11,0,0,1-5.93,2.85c-2.15.67-4.27,1.2-6.22,1.94a16.51,16.51,0,0,0-5.17,3,33,33,0,0,0-3.77,4c-1.1,1.32-2.11,2.57-3.08,3.67a28.76,28.76,0,0,1-2.81,2.82c-.46.36-.89.7-1.31,1s-.8.53-1.18.71l-1,.47c-.29.11-.55.19-.76.25a2.48,2.48,0,0,1-.64.18,3.4,3.4,0,0,1,.61-.27c.19-.09.45-.17.73-.3l1-.51c.35-.19.71-.47,1.13-.73s.81-.64,1.26-1a28.84,28.84,0,0,0,2.72-2.83c1-1.11,1.93-2.37,3-3.71a32.07,32.07,0,0,1,3.79-4,16.64,16.64,0,0,1,5.3-3.08c2-.76,4.12-1.29,6.24-2a17.71,17.71,0,0,0,5.77-2.75,11.15,11.15,0,0,0,1.13-1c.31-.39.64-.77.91-1.18.53-.84,1-1.74,1.5-2.57a5.49,5.49,0,0,1,2.12-2,8.71,8.71,0,0,1,2.62-.78,15.89,15.89,0,0,0,4.59-1,8,8,0,0,0,2.87-2.54,18.09,18.09,0,0,0,1.5-2.56c.35-.73.6-1.32.78-1.71A4.62,4.62,0,0,1,168.24,202.18Z" style="fill:#455a64"></path><path d="M124.68,228.68a1.8,1.8,0,0,1-.24-.5,4.24,4.24,0,0,1-.23-1.59,7.46,7.46,0,0,1,2.81-5.05c1.86-1.75,4.8-2.57,7.72-3.88a12,12,0,0,0,4.08-2.82c1.16-1.28,2-2.92,3.35-4.33a24.53,24.53,0,0,1,4.49-3.19,18.09,18.09,0,0,0,3.75-3.34,20.49,20.49,0,0,0,4-7.45,20.08,20.08,0,0,0,.83-5.7c0-1.36-.12-2.12-.06-2.13a2.57,2.57,0,0,1,.11.55,13.44,13.44,0,0,1,.15,1.58,19.08,19.08,0,0,1-.67,5.8,20.42,20.42,0,0,1-4,7.66,18.16,18.16,0,0,1-3.82,3.45c-1.47,1-3.16,1.79-4.4,3.13s-2.14,3-3.35,4.31a12.18,12.18,0,0,1-4.27,2.91c-3,1.32-5.86,2.08-7.67,3.73a7.4,7.4,0,0,0-2.84,4.79A5.55,5.55,0,0,0,124.68,228.68Z" style="fill:#455a64"></path><path d="M121.3,213.14c0-.2.79-.14,2-.39a15,15,0,0,0,4.94-2.1,6.65,6.65,0,0,0,2.35-2.42,4.41,4.41,0,0,0,.31-3.45,2.91,2.91,0,0,0-1-1.39,3.21,3.21,0,0,0-1.66-.66,2.07,2.07,0,0,0-1.53.46,2.47,2.47,0,0,0-.81,1.5,1.59,1.59,0,0,0,.43,1.41,2.57,2.57,0,0,0,1.56.67,4.76,4.76,0,0,0,3.5-1.54,11.33,11.33,0,0,0,3.34-6.77,13.76,13.76,0,0,0-.37-5.33c-.35-1.24-.66-1.94-.49-2s.74.42,1.43,1.67a11.75,11.75,0,0,1,1.27,5.85,12.66,12.66,0,0,1-3.5,8.34,8.78,8.78,0,0,1-2.26,1.69,6,6,0,0,1-3.11.67,5,5,0,0,1-3.2-1.38,4.17,4.17,0,0,1-1-1.66,4.35,4.35,0,0,1-.15-1.92,5,5,0,0,1,1.74-3.16,4.63,4.63,0,0,1,3.41-1,5.56,5.56,0,0,1,4.72,3.84,6.53,6.53,0,0,1-.71,5.27,8.24,8.24,0,0,1-3.3,2.94,12.42,12.42,0,0,1-5.79,1.52C122,213.71,121.26,213.29,121.3,213.14Z" style="fill:#263238"></path><path d="M169.76,273.57c.05-.06.16-.11.14-.21a1,1,0,0,1,0-.31,8.88,8.88,0,0,1,.61-1.61,55.63,55.63,0,0,1,2.73-5c2.29-3.76,4.41-6.69,5.06-6.37s-.48,3.86-2.83,7.72a29.23,29.23,0,0,1-3.43,4.65,10,10,0,0,1-1.35,1.23,1,1,0,0,1-.77.19C169.68,273.79,169.7,273.63,169.76,273.57Z" style="fill:#263238"></path><path d="M375.72,204.94c.06.13-.8.82-2.73,1.22a11.52,11.52,0,0,1-8-1.59,10.62,10.62,0,0,1-4-4.31,12.29,12.29,0,0,1,2-13.56,10.47,10.47,0,0,1,3.33-2.42,7.7,7.7,0,0,1,4.39-.65,6.39,6.39,0,0,1,4,2.34,5.22,5.22,0,0,1,1,2.19,5.36,5.36,0,0,1-.07,2.33,6.47,6.47,0,0,1-2.34,3.58,8.28,8.28,0,0,1-3.59,1.54,11.81,11.81,0,0,1-6.75-.84,12,12,0,0,1-4.63-3.58,11.38,11.38,0,0,1-2.07-4.32,11,11,0,0,1-.26-3.54c.2-2,.77-2.89.91-2.84s0,1.08.1,2.85a11.26,11.26,0,0,0,2.73,6.67,10.44,10.44,0,0,0,4,2.76,9.86,9.86,0,0,0,5.46.49,6.06,6.06,0,0,0,2.52-1.15,4,4,0,0,0,1.4-2.2,2.72,2.72,0,0,0-.5-2.36,3.84,3.84,0,0,0-2.36-1.35,6.54,6.54,0,0,0-5.44,2.25,10.21,10.21,0,0,0-1.87,10.87,9.31,9.31,0,0,0,1.34,2.12A9.94,9.94,0,0,0,366,203a11.53,11.53,0,0,0,6.91,2.12C374.66,205.09,375.64,204.75,375.72,204.94Z" style="fill:#263238"></path><path d="M379.73,160c.11.09-.3.94-1.67,1.86a9.14,9.14,0,0,1-6.78,1.28,8.84,8.84,0,0,1-4.41-2.33,9.94,9.94,0,0,1-2.82-5,8.81,8.81,0,0,1,.9-6.42,6.41,6.41,0,0,1,2.72-2.55,5.64,5.64,0,0,1,3.95-.3,4.73,4.73,0,0,1,1.87,1.06,4.66,4.66,0,0,1,1.16,1.77,5.76,5.76,0,0,1,0,3.8,6,6,0,0,1-.83,1.66,7.17,7.17,0,0,1-1.18,1.27,9.47,9.47,0,0,1-2.75,1.61,16,16,0,0,1-10.18.23,14.9,14.9,0,0,1-5.89-3.33c-1.16-1.1-1.58-1.89-1.46-2s.81.41,2.08,1.2a17.56,17.56,0,0,0,5.73,2.35,15,15,0,0,0,8.81-.67,5.37,5.37,0,0,0,3.24-3.09,3.34,3.34,0,0,0,0-2.12,2,2,0,0,0-1.36-1.25,3.09,3.09,0,0,0-2.11.17,3.92,3.92,0,0,0-1.63,1.51,6.57,6.57,0,0,0-.74,4.61,8.21,8.21,0,0,0,2,4,7.25,7.25,0,0,0,3.32,2.06,9,9,0,0,0,5.86-.38C378.93,160.38,379.59,159.81,379.73,160Z" style="fill:#263238"></path><path d="M182.36,206.55a8,8,0,0,0-2.58,2.63,8.35,8.35,0,0,0-1.13,4,7.1,7.1,0,0,0,1.8,5l.53.58-.75-.21a10.93,10.93,0,0,0-6.23.25,10.52,10.52,0,0,0-5.5,4.22,11,11,0,0,0-1.37,8.83l.2.7-.58-.44a11,11,0,0,0-6.63-2.17,12.4,12.4,0,0,0-5.42,1.21,12.53,12.53,0,0,0-3.93,3,1,1,0,0,1,.18-.29,6.48,6.48,0,0,1,.63-.78,10.79,10.79,0,0,1,3-2.25,12.28,12.28,0,0,1,5.56-1.35,11.31,11.31,0,0,1,6.92,2.19l-.38.26a11.44,11.44,0,0,1,1.4-9.24,11,11,0,0,1,5.78-4.42,11.32,11.32,0,0,1,6.5-.2l-.22.37a7.4,7.4,0,0,1-1.83-5.31,8.36,8.36,0,0,1,1.26-4.17,6.9,6.9,0,0,1,1.94-2,6.19,6.19,0,0,1,.64-.36C182.28,206.57,182.36,206.54,182.36,206.55Z" style="fill:#455a64"></path><path d="M190.51,254.5a2.76,2.76,0,0,1-.58.15,3.32,3.32,0,0,1-.73.11,5.31,5.31,0,0,1-1,0,9.37,9.37,0,0,1-5.83-2.45,9.09,9.09,0,0,1-2.52-3.65,8.16,8.16,0,0,1-.52-2.45,8.27,8.27,0,0,1,.36-2.63,8.62,8.62,0,0,1,1.21-2.5,10,10,0,0,1,4.57-3.65,8.16,8.16,0,0,1,3-.61,6.26,6.26,0,0,1,3.06.65,2.62,2.62,0,0,1,1.13,1.15,2.14,2.14,0,0,1,.12,1.61,1.64,1.64,0,0,1-1.21,1.07,2.88,2.88,0,0,1-1.52-.13,7.42,7.42,0,0,1-2.38-1.48,8.83,8.83,0,0,1,.72-14,6.15,6.15,0,0,1,2.09-1,14.18,14.18,0,0,0-2,1.2,9,9,0,0,0-3.33,5.14,8.67,8.67,0,0,0,2.81,8.29,7.06,7.06,0,0,0,2.22,1.37,2.44,2.44,0,0,0,1.25.11,1.13,1.13,0,0,0,.84-.74,1.7,1.7,0,0,0-.1-1.23,2.1,2.1,0,0,0-.92-.92,5.86,5.86,0,0,0-2.81-.57,7.37,7.37,0,0,0-2.86.57,9.61,9.61,0,0,0-4.34,3.44,8.1,8.1,0,0,0-1.16,2.36,7.92,7.92,0,0,0-.36,2.48,7.59,7.59,0,0,0,.46,2.31,8.9,8.9,0,0,0,2.37,3.53,9.37,9.37,0,0,0,5.59,2.52A17.6,17.6,0,0,0,190.51,254.5Z" style="fill:#455a64"></path><path d="M139.8,149.14c0,.05-.55.15-1.49.51a10.44,10.44,0,0,0-3.52,2.28,9.65,9.65,0,0,0-2.83,5.43,10.11,10.11,0,0,0,1.68,7.23,10.51,10.51,0,0,0,.68.87l.33.38-.49,0a9.74,9.74,0,0,0-6.26,3.24,9.31,9.31,0,0,0-2.27,5.31,10.31,10.31,0,0,0,.4,3.92c.28.9.52,1.36.48,1.38a1.41,1.41,0,0,1-.21-.32,5.51,5.51,0,0,1-.45-1,9.72,9.72,0,0,1,1.69-9.6,10.1,10.1,0,0,1,6.57-3.44l-.17.43c-.24-.28-.5-.59-.73-.92a10.5,10.5,0,0,1-1.72-7.6,10.08,10.08,0,0,1,6.76-7.83,7,7,0,0,1,1.14-.29A1.07,1.07,0,0,1,139.8,149.14Z" style="fill:#455a64"></path><path d="M158.55,118.8s-.57-.27-1.66-.55a9,9,0,0,0-4.7.09,8.15,8.15,0,0,0-5.21,4.3,8.86,8.86,0,0,0,.37,8.17,7.55,7.55,0,0,0,.61.88l.24.35-.4.07a11.56,11.56,0,0,0-6.85,4.18,11.09,11.09,0,0,0-2.33,6.14,12,12,0,0,0,.53,4.45c.33,1,.61,1.54.57,1.56s-.1-.11-.24-.36A8.76,8.76,0,0,1,139,147,11.49,11.49,0,0,1,140.58,136a11.91,11.91,0,0,1,7.13-4.4l-.16.42a8.15,8.15,0,0,1-.64-.94,9.28,9.28,0,0,1-.36-8.65,7.92,7.92,0,0,1,2.49-3,9,9,0,0,1,7.9-1.39,6.2,6.2,0,0,1,1.22.5C158.43,118.7,158.56,118.78,158.55,118.8Z" style="fill:#455a64"></path><path d="M318.91,200.91a2.55,2.55,0,0,1,.54,0h.64l.87-.09a12.63,12.63,0,0,0,5.18-1.89,13.15,13.15,0,0,0,5.2-6.17,10.8,10.8,0,0,0,.76-4.7,6,6,0,0,0-.67-2.39,4.15,4.15,0,0,0-1.78-1.74,3.16,3.16,0,0,0-2-.32l-.55.11.28-.49a21.78,21.78,0,0,0,3.11-8.73,10.26,10.26,0,0,0-.38-4,9.43,9.43,0,0,0-1.64-3,7.42,7.42,0,0,0-4.12-2.69,11.53,11.53,0,0,0-1.83-.18,4.38,4.38,0,0,1,1.87,0,7.44,7.44,0,0,1,4.35,2.65,9.66,9.66,0,0,1,1.77,3.13,10.93,10.93,0,0,1,.45,4.13,21.78,21.78,0,0,1-3.13,8.95l-.27-.39a3.67,3.67,0,0,1,2.29.36,4.73,4.73,0,0,1,2,2,6.58,6.58,0,0,1,.72,2.59,11.15,11.15,0,0,1-.83,4.93,13.27,13.27,0,0,1-5.45,6.3A12.11,12.11,0,0,1,321,201l-.89.05-.65-.05A1.6,1.6,0,0,1,318.91,200.91Z" style="fill:#455a64"></path><path d="M143.19,251.92c-.15.09-.68-.4-1.49-1.42a16.09,16.09,0,0,1-2.72-4.93,10.51,10.51,0,0,1-.48-4.07,7.64,7.64,0,0,1,2-4.53,7.77,7.77,0,0,1,4.94-2.46,6.72,6.72,0,0,1,5.68,2.17,5.27,5.27,0,0,1,.9,1.45,4.47,4.47,0,0,1,.36,1.73,5.12,5.12,0,0,1-1.06,3.13,4.19,4.19,0,0,1-2.94,1.65,4.37,4.37,0,0,1-3-.95,7.21,7.21,0,0,1-2.51-4.32,10.43,10.43,0,0,1,0-4.1,9.85,9.85,0,0,1,2.69-5.07c1-.94,1.7-1.21,1.8-1.08s-.36.69-1,1.72a10.94,10.94,0,0,0-1.65,4.72,9.09,9.09,0,0,0,.27,3.32,5.06,5.06,0,0,0,1.83,2.88,2,2,0,0,0,1.35.4,1.67,1.67,0,0,0,1.12-.72,2.59,2.59,0,0,0,.5-1.55,2.42,2.42,0,0,0-.64-1.51,4.26,4.26,0,0,0-3.49-1.33,5.46,5.46,0,0,0-5,4.71,9.06,9.06,0,0,0,.11,3.34,23.89,23.89,0,0,0,1.8,4.87C143.09,251.13,143.34,251.82,143.19,251.92Z" style="fill:#263238"></path><path d="M332.81,253.48c0-.15.49-.32,1.34-.72a10,10,0,0,0,3.16-2.3,8.07,8.07,0,0,0,2.16-5.2,8.2,8.2,0,0,0-2.73-6.35l-3.8-3.29,4.91,1.19a13.53,13.53,0,0,0,9.47-1.42,14.54,14.54,0,0,0,4.38-3.62,12.48,12.48,0,0,0,2.3-4.7,14.63,14.63,0,0,0-.83-9,16,16,0,0,0-3.55-5.19l-.74-.7-.57-.49c-.3-.29-.45-.47-.4-.55s.27-.05.67.09c.2.08.46.17.74.31l.93.55a13.75,13.75,0,0,1,4.58,5.19,15.66,15.66,0,0,1,1.51,10.27,14.39,14.39,0,0,1-2.63,5.75,16.6,16.6,0,0,1-5.15,4.34,15.44,15.44,0,0,1-11.32,1.49l1.11-2.09a10.11,10.11,0,0,1,3.18,8.31,9.29,9.29,0,0,1-3.17,6.15,8.56,8.56,0,0,1-4,2C333.38,253.71,332.82,253.6,332.81,253.48Z" style="fill:#263238"></path><path d="M191.38,78.19c-.1-.09.24-.73,1.16-1.68a14.21,14.21,0,0,1,4.74-3.05,16,16,0,0,1,8.57-.95,9.78,9.78,0,0,1,5.05,2.19,6.13,6.13,0,0,1,1.76,2.73,5,5,0,0,1-.18,3.56L210.12,80A15.09,15.09,0,0,1,214,74a15.75,15.75,0,0,1,12.61-4.35,14.09,14.09,0,0,1,5.61,2A15.88,15.88,0,0,1,236.12,75a14.12,14.12,0,0,1,3.13,6.54c.26,1.7.07,2.64-.07,2.65s-.37-.89-.91-2.39a15.84,15.84,0,0,0-3.52-5.57,13.06,13.06,0,0,0-18.93-.31,12.84,12.84,0,0,0-3.28,5l-2.37-1a3.14,3.14,0,0,0-.92-3.43,7.74,7.74,0,0,0-3.81-1.78,15.4,15.4,0,0,0-7.61.32,18.32,18.32,0,0,0-4.72,2.18C192.07,77.88,191.51,78.31,191.38,78.19Z" style="fill:#263238"></path><path d="M291.67,75.7c-.21-.06.18-1.47.11-4A17,17,0,0,0,288.15,62a15,15,0,0,0-2.43-2.41,12.5,12.5,0,0,0-3.15-1.87,13,13,0,0,0-3.79-1,14.56,14.56,0,0,0-4.16.09,15.43,15.43,0,0,0-8,3.74,13,13,0,0,0-2.82,3.64,6.16,6.16,0,0,0-.68,4.2,3.5,3.5,0,0,0,2.43,2.69,3.55,3.55,0,0,0,3.26-1.37,3.69,3.69,0,0,0,.77-1.64,4.25,4.25,0,0,0-.11-1.87A6,6,0,0,0,267.29,63c-2.11-1.55-5-1.69-7.47-1.19a16.29,16.29,0,0,0-6.46,3,18.89,18.89,0,0,0-6.22,8.4c-.84,2.39-.95,3.85-1.17,3.83s-.39-1.49.2-4.12a18.35,18.35,0,0,1,6-9.55,17.84,17.84,0,0,1,7.15-3.63,14.09,14.09,0,0,1,4.58-.34,9.75,9.75,0,0,1,4.76,1.7,8.38,8.38,0,0,1,3.19,4.4,6.87,6.87,0,0,1,.21,3,6.2,6.2,0,0,1-1.28,2.83,6.66,6.66,0,0,1-2.47,1.91,5.57,5.57,0,0,1-3.3.4,5.39,5.39,0,0,1-2.91-1.72A6.73,6.73,0,0,1,260.63,69a8.68,8.68,0,0,1,.88-6,15.46,15.46,0,0,1,3.43-4.37,17.51,17.51,0,0,1,9.34-4.23,16.77,16.77,0,0,1,4.8,0,15,15,0,0,1,4.37,1.28A14.18,14.18,0,0,1,287,58a16.55,16.55,0,0,1,2.62,2.85,17.76,17.76,0,0,1,2.74,6,16,16,0,0,1,.43,4.89C292.54,74.42,291.8,75.75,291.67,75.7Z" style="fill:#263238"></path><path d="M139.44,357.64s5.54-35.38,13.14-57.19,31.57-27,31.57-27l10.31,89.25Z" style="fill:#00ACB7"></path><path d="M180.82,351.08s-26.94-57.81-14.76-68.86,54.29-19.49,54.29-19.49c22.85,26.52,56.34,14.22,66.32-3.93l44.43,9.79,8.82,3.16-7.83,160.49,24.14,48.21H183.7l25.94-48.21Z" style="fill:#00ACB7"></path><g style="opacity:0.30000000000000004"><path d="M187.08,476.55c4.21,2.66,9.81,1.72,14.29-.46s8.34-5.48,12.83-7.63c11.79-5.64,25.63-2.67,38.56-.8a206.38,206.38,0,0,0,81.86-4.72c4.55-1.55,7.24-2.42,10.85-4,0,0-5.82-11.42-8.18-16.8H249.42l-36.09,7.37-26.25,20.82Z"></path></g><path d="M165.43,452.54s-7.15-1-7-3.68,4.53-13.44,9.12-17.19S209,423.43,209,423.43l16.78,3.24-5.66,29.27s-26.34,20.24-33.2,19.69-12.72,1.8-12.86-7.51c0,0-6.2-3.91-5.05-9.87C169,458.25,163.33,461.41,165.43,452.54Z" style="fill:#ae7461"></path><path d="M322.71,410.44,211.83,424l1.89,32.22s52.65,7.83,91.49,4.24c19.69-1.82,32.32-4.6,40-6.9a18.68,18.68,0,0,0,12.71-13.17c3.56-13.57,9.71-38.92,10-53.12.41-20,5.73-105-24.33-107.35,0,0-11.34-.58-12.61,31.08S322.71,410.44,322.71,410.44Z" style="fill:#ae7461"></path><path d="M322.71,376.33l54.81-9.88s-6.53-41-9.39-53c-9.58-40.23-36-44.47-36-44.47s-.44,11.3-5,34.32c-4,20-1.84,44.67-1.84,44.67Z" style="fill:#00ACB7"></path><path d="M318.82,396.08c20.14-34.78,11-72.4,12.25-90.49" style="fill:#00ACB7"></path><path d="M331.07,305.59a1.1,1.1,0,0,1,0,.24v.7c0,.66,0,1.57,0,2.7s.08,2.62.12,4.27.19,3.57.31,5.66c.47,8.36,1.37,20,.44,32.79a124.72,124.72,0,0,1-2.62,17.88l-1.05,3.93c-.36,1.27-.62,2.52-1.06,3.68s-.8,2.3-1.17,3.38-.7,2.14-1.15,3.09l-2.27,5.2c-.72,1.51-1.45,2.75-2,3.79s-1,1.79-1.3,2.37c-.14.25-.25.45-.35.61a.82.82,0,0,1-.13.2.76.76,0,0,1,.09-.23l.3-.63,1.21-2.41c.52-1.06,1.23-2.3,1.92-3.82s1.38-3.29,2.18-5.21a32.71,32.71,0,0,0,1.12-3.09c.36-1.09.74-2.21,1.13-3.38s.69-2.41,1-3.67l1-3.91a127.17,127.17,0,0,0,2.57-17.82c.93-12.76.09-24.36-.29-32.73-.11-2.1-.16-4-.23-5.67s0-3.09,0-4.28.1-2,.14-2.7l0-.7A.92.92,0,0,1,331.07,305.59Z" style="fill:#263238"></path><path d="M169.47,315.08a1.65,1.65,0,0,1,.1.29c.06.21.13.49.23.84.21.73.46,1.83.86,3.23l1.54,5.07c.64,2,1.33,4.21,2.16,6.67,3.28,9.87,8.07,23.41,13.46,38.34s10.28,28.41,13.83,38.22c1.76,4.9,3.15,8.87,4.09,11.62.45,1.35.8,2.42,1,3.18.11.34.19.62.26.83a1,1,0,0,1,.07.29s-.05-.09-.12-.27l-.31-.81q-.41-1.14-1.14-3.15c-1-2.77-2.46-6.71-4.24-11.56-3.6-9.76-8.59-23.24-14-38.17S177.2,341.2,174,331.3c-.81-2.48-1.48-4.73-2.09-6.71s-1-3.7-1.45-5.1-.6-2.52-.77-3.26l-.19-.85A1.73,1.73,0,0,1,169.47,315.08Z" style="fill:#263238"></path><path d="M340.07,433.48c-.09,0-.57-1.56-1.6-4a43.85,43.85,0,0,0-5.07-9,38.76,38.76,0,0,0-7.22-7.41c-2.1-1.64-3.52-2.49-3.47-2.57a4.67,4.67,0,0,1,1,.53,27.85,27.85,0,0,1,2.65,1.74,35.23,35.23,0,0,1,7.42,7.4,39.62,39.62,0,0,1,5,9.21c.47,1.26.8,2.29,1,3A4.64,4.64,0,0,1,340.07,433.48Z" style="fill:#6f4439"></path><path d="M269.51,341.23a4.94,4.94,0,0,1,.15.84c.06.56.22,1.38.28,2.45a47.37,47.37,0,0,1-.12,9.06,49.74,49.74,0,0,1-36.65,42.84,46.91,46.91,0,0,1-8.93,1.52c-1.07.11-1.9.08-2.46.1a5.08,5.08,0,0,1-.86,0,4.74,4.74,0,0,1,.85-.09c.56-.06,1.39-.06,2.45-.2a50.49,50.49,0,0,0,8.85-1.68,51.43,51.43,0,0,0,12.25-5.23,50.72,50.72,0,0,0,24.42-46.29c0-1.07-.16-1.89-.19-2.45A5.55,5.55,0,0,1,269.51,341.23Z" style="fill:#263238"></path><g style="opacity:0.30000000000000004"><path d="M224.54,397.59a35.1,35.1,0,0,0,36-6.08c9.57-8.54,12.26-22.73,8.72-35.05-1.49,6.25-4.15,15.94-12.63,25.37-7,7.77-21.68,14.58-32.06,15.76"></path></g><path d="M293.44,261.92s0,.08-.11.21l-.37.58a26,26,0,0,1-1.48,2.18,42.6,42.6,0,0,1-6.66,7.07,51,51,0,0,1-5.41,4,51.85,51.85,0,0,1-6.82,3.58,49.35,49.35,0,0,1-8.07,2.75,47.79,47.79,0,0,1-9,1.4,50.26,50.26,0,0,1-9.15-.34,52.08,52.08,0,0,1-8.31-1.88A45.21,45.21,0,0,1,225.17,275a38.33,38.33,0,0,1-7.1-6.61c-.77-.85-1.23-1.62-1.61-2.09-.15-.23-.28-.41-.39-.56s-.13-.2-.12-.2.06.05.16.17l.44.53c.4.45.88,1.19,1.67,2a40.79,40.79,0,0,0,7.17,6.45A46.08,46.08,0,0,0,238.16,281a51.47,51.47,0,0,0,8.24,1.83,50.11,50.11,0,0,0,9,.33,47.91,47.91,0,0,0,8.95-1.38,49.73,49.73,0,0,0,8-2.69,51.8,51.8,0,0,0,6.78-3.51,49.36,49.36,0,0,0,5.4-3.9,44.49,44.49,0,0,0,6.74-6.9c.73-.87,1.19-1.64,1.56-2.11l.4-.56A1.22,1.22,0,0,1,293.44,261.92Z" style="fill:#263238"></path><path d="M146,303.26l25.51,50.61,11.21,2.71c-.17-.48,23.39,62.89,25.81,71.5,6.34,22.51-12.88,35.57-37.23,20.35s-52.26-133.34-52.26-133.34Z" style="fill:#ae7461"></path><path d="M147.05,305.25s2.27-4.28-5.48-11.63l-25.51-18.16-.28-10.76,6.82-1.53s6.81,2.27,8.55-2.54h0a3.35,3.35,0,0,0-2.61-3.09l-4.07-.91s0-2.14-1.07-2.54S110.31,250,110.31,250l-6.94,1.33,2.8-3.07s8.66-5.19,5.73-12.8l-.58-.78L101,240.73s-.26-4.81-3.2-5.88c0,0-18.33,12.09-20.57,15.76C75.1,254,74.78,279.2,76,283.47s28.05,19.77,32.45,23.65,9.22,6.54,13.63,12.15" style="fill:#ae7461"></path><path d="M122.07,319.27s-.14-.14-.4-.44-.63-.75-1.15-1.32A43.59,43.59,0,0,0,115.6,313c-1.14-.93-2.44-1.91-3.86-3-.7-.54-1.44-1.11-2.19-1.73s-1.5-1.3-2.34-1.91c-3.39-2.43-7.44-4.95-11.87-7.83s-9.34-6-14.35-9.76a38.77,38.77,0,0,1-3.67-3.09,6.33,6.33,0,0,1-1.51-2,15.33,15.33,0,0,1-.41-2.5c-.29-3.34-.34-6.78-.34-10.32s.12-7.17.37-10.89c.12-1.85.3-3.73.56-5.62l.24-1.42.35-1.42A5.92,5.92,0,0,1,78.26,249a91.44,91.44,0,0,1,9.28-7.39c3.26-2.35,6.63-4.67,10.08-7l.11-.08.12.05a4.19,4.19,0,0,1,1.49,1,6.36,6.36,0,0,1,1,1.53,10.59,10.59,0,0,1,.89,3.57l-.39-.21,5.31-3.13,5-3,.2-.12.14.19.58.79,0,0v0a9.43,9.43,0,0,1,.58,3.9,9.69,9.69,0,0,1-1.13,3.73,16,16,0,0,1-5.28,5.48l0-.05-2.8,3.07-.24-.42,7-1.33h.06l.06,0,8.06,2.55,3.93,1.25,1,.31a1.48,1.48,0,0,1,.88.73,4.52,4.52,0,0,1,.47,2.08l-.18-.24,2.34.53,1.16.26a6.38,6.38,0,0,1,1.18.33,3.62,3.62,0,0,1,1.79,1.68,3.51,3.51,0,0,1,.36,1.18l0,.16v.07h0s0-.09,0,.09v.05l-.13.28-.26.54a4.85,4.85,0,0,1-1.72,1.65,6.46,6.46,0,0,1-2.24.65,11.76,11.76,0,0,1-4.47-.5h.12l-6.83,1.52.17-.21c.09,3.77.18,7.34.26,10.75l-.08-.15,25.47,18.23h0c3.19,3,5,6,5.54,8.3a6.53,6.53,0,0,1,.13,2.57,2.7,2.7,0,0,1-.27.84,3.72,3.72,0,0,0,.21-.85,6.6,6.6,0,0,0-.19-2.53c-.53-2.21-2.38-5.16-5.58-8.16h0l-25.56-18.1-.08-.06v-.1c-.09-3.41-.19-7-.3-10.75v-.18l.17,0,6.82-1.55h.06l.06,0a11.43,11.43,0,0,0,4.28.47,6.17,6.17,0,0,0,2.07-.6,4.36,4.36,0,0,0,1.54-1.48l.23-.5.12-.25v-.05c0,.19,0,.05,0,.09h0v-.2a3.09,3.09,0,0,0-.32-1,3.13,3.13,0,0,0-1.56-1.46,7.26,7.26,0,0,0-1.1-.3l-1.16-.26-2.34-.52-.18,0v-.19a4.2,4.2,0,0,0-.41-1.84,1,1,0,0,0-.63-.52l-1-.3-3.93-1.24-8.05-2.54h.12l-6.94,1.34-.76.15.52-.57L106,248l0,0,0,0a15.59,15.59,0,0,0,5.09-5.28,9.41,9.41,0,0,0,1.08-3.53,8.93,8.93,0,0,0-.56-3.68l0,.06-.58-.78.34.07-5,3L101.1,241l-.36.21,0-.42a10.5,10.5,0,0,0-.84-3.37A5.72,5.72,0,0,0,99,236a3.5,3.5,0,0,0-1.29-.88l.23,0c-3.44,2.29-6.81,4.6-10.06,6.94a90.4,90.4,0,0,0-9.23,7.34,5.34,5.34,0,0,0-1.56,2.24L76.72,253l-.24,1.4c-.26,1.86-.44,3.73-.57,5.58-.25,3.69-.36,7.32-.38,10.85s0,7,.31,10.28L76,282.3c.07.4.14.8.24,1.18a6.12,6.12,0,0,0,1.4,1.85,39.89,39.89,0,0,0,3.62,3.06c5,3.76,9.87,6.89,14.29,9.8s8.46,5.43,11.84,7.9c.86.62,1.59,1.32,2.34,1.93s1.48,1.2,2.18,1.75c1.41,1.1,2.7,2.09,3.83,3a40.85,40.85,0,0,1,4.88,4.65A22,22,0,0,1,122.07,319.27Z" style="fill:#6f4439"></path><path d="M104.59,251.05a8.1,8.1,0,0,1-1.21.34c-.78.19-1.9.47-3.28.86a34.58,34.58,0,0,0-4.72,1.68A7.52,7.52,0,0,0,93,255.51a8.28,8.28,0,0,0-1,2.89,46.47,46.47,0,0,0-.71,6.11c-.12,1.89-.17,3.6-.2,5S91,272,91,273a7.38,7.38,0,0,1-.07,1.25,5.08,5.08,0,0,1-.14-1.25c0-.8-.09-2-.1-3.41s0-3.16.09-5.06a43.3,43.3,0,0,1,.68-6.19,8.56,8.56,0,0,1,1.15-3.09,7.63,7.63,0,0,1,2.56-1.7,29.47,29.47,0,0,1,4.83-1.6c1.4-.35,2.55-.58,3.34-.71A4.49,4.49,0,0,1,104.59,251.05Z" style="fill:#6f4439"></path><path d="M124.47,256.63s-.49-.11-1.37-.26a20.82,20.82,0,0,0-3.79-.25,40.9,40.9,0,0,0-5.62.46,29.36,29.36,0,0,0-6.65,1.71,4.37,4.37,0,0,0-1.43.9,5.25,5.25,0,0,0-.64,1.53,26.61,26.61,0,0,0-.62,3.26c-.3,2.1-.46,4-.58,5.63-.23,3.22-.28,5.21-.28,5.21s-.22-2-.08-5.23c.07-1.62.19-3.55.46-5.68a27.07,27.07,0,0,1,.61-3.33,5.38,5.38,0,0,1,.73-1.71,4.78,4.78,0,0,1,1.62-1.06,27.78,27.78,0,0,1,6.79-1.7,35.17,35.17,0,0,1,5.69-.36,18.06,18.06,0,0,1,3.83.42,6.62,6.62,0,0,1,1,.3C124.36,256.56,124.48,256.61,124.47,256.63Z" style="fill:#6f4439"></path><path d="M101,240.73a7.52,7.52,0,0,1-1.09.86l-3.05,2.23c-1.28,1-2.81,2.08-4.47,3.37a56,56,0,0,0-5.17,4.45c-1.77,1.66-2.38,4-2.91,6a52.81,52.81,0,0,0-1,5.49c-.2,1.58-.33,2.86-.42,3.75a10.08,10.08,0,0,1-.17,1.38,5.59,5.59,0,0,1,0-1.39c0-.9.1-2.19.26-3.78a45.42,45.42,0,0,1,.89-5.56,21.27,21.27,0,0,1,1-3.21,8.89,8.89,0,0,1,2-3,51,51,0,0,1,5.26-4.47c1.68-1.28,3.23-2.38,4.55-3.29s2.39-1.62,3.15-2.1A7.1,7.1,0,0,1,101,240.73Z" style="fill:#6f4439"></path><path d="M196.47,418.82a2.85,2.85,0,0,1-.12-.3c-.07-.23-.17-.52-.3-.89l-1.1-3.44c-.46-1.5-1.08-3.32-1.81-5.42L192,405.39l-1.36-3.76c-1.88-5.28-4.34-11.49-7.13-18.36s-6.09-14.33-9.62-22.13c-7.09-15.58-13.92-29.5-18.87-39.57-2.46-5-4.46-9.08-5.87-11.92l-1.58-3.26-.39-.85a1.23,1.23,0,0,1-.12-.29,1.48,1.48,0,0,1,.16.27c.12.21.26.48.45.83.4.76,1,1.84,1.66,3.2l6,11.85c5,10,11.92,23.93,19,39.53,3.53,7.8,6.76,15.29,9.58,22.16s5.19,13.11,7,18.42c.46,1.32.91,2.58,1.33,3.77l1.11,3.4c.7,2.11,1.29,3.94,1.72,5.45l1,3.47c.11.38.19.68.26.91A1.21,1.21,0,0,1,196.47,418.82Z" style="fill:#6f4439"></path><path d="M207.42,425.63a4.73,4.73,0,0,1,.24.81c.15.53.34,1.33.56,2.36a43.22,43.22,0,0,1,.94,8.85,23.64,23.64,0,0,1-.82,6.12,13.52,13.52,0,0,1-3.61,6.08,23.52,23.52,0,0,1-14.65,6.41,20.31,20.31,0,0,1-8.33-1.14,30.32,30.32,0,0,1-6.79-3.9,60.73,60.73,0,0,1-9.71-9,51.92,51.92,0,0,1-5.29-7.15c-.55-.9-.94-1.62-1.19-2.11a4.93,4.93,0,0,1-.36-.77,7.22,7.22,0,0,1,.45.72c.28.48.7,1.17,1.27,2.05a57.84,57.84,0,0,0,5.4,7,61.76,61.76,0,0,0,9.71,8.8,29.52,29.52,0,0,0,6.69,3.81,19.91,19.91,0,0,0,8.11,1.1,23.18,23.18,0,0,0,14.35-6.23,13.06,13.06,0,0,0,3.54-5.86,23.67,23.67,0,0,0,.86-6,46.28,46.28,0,0,0-.77-8.81c-.19-1-.34-1.83-.46-2.37A6.28,6.28,0,0,1,207.42,425.63Z" style="fill:#6f4439"></path></g></svg>
